<svg width="251" height="265" viewBox="0 0 251 265" fill="none" xmlns="http://www.w3.org/2000/svg">
<path d="M121.044 248.483C165.557 248.483 201.641 228.6 201.641 204.073C201.641 179.546 165.557 159.663 121.044 159.663C76.5309 159.663 40.446 179.546 40.446 204.073C40.446 228.6 76.5309 248.483 121.044 248.483Z" fill="#EB5878"/>
<path d="M130.28 181.842C145.746 181.842 158.283 174.272 158.283 164.934C158.283 155.595 145.746 148.025 130.28 148.025C114.814 148.025 102.277 155.595 102.277 164.934C102.277 174.272 114.814 181.842 130.28 181.842Z" fill="#F298A3"/>
<path fill-rule="evenodd" clip-rule="evenodd" d="M79.6565 160.289C97.3056 157.027 104.277 171.535 86.4514 174.484C68.6258 177.432 60.9779 163.681 79.6565 160.289ZM169.049 158.071C184.434 154.888 189.64 168.795 174.168 171.744C157.872 174.823 150.871 161.776 169.049 158.071ZM153.724 158.723C154.312 163.942 148.429 170.048 145.664 172.266C141.227 175.954 135.493 178.174 129.427 178.554C126.3 178.799 123.149 178.459 120.18 177.555C117.21 176.651 114.488 175.204 112.189 173.308C109.89 171.411 108.066 169.107 106.834 166.546C105.603 163.984 104.993 161.221 105.042 158.436C118.661 158.123 140.693 157.393 153.724 158.723ZM66.8609 145.938C62.2427 144.242 67.7139 137.353 69.8024 135.501C71.4251 133.941 73.3884 132.69 75.5729 131.825C77.7574 130.959 80.1175 130.496 82.5098 130.465C94.6877 130.021 104.042 140.015 102.012 144.816C98.5705 144.451 99.5706 144.085 97.8939 141.346C96.5024 138.959 94.3898 136.963 91.7924 135.58C89.195 134.198 86.2152 133.484 83.1863 133.518C68.7141 133.518 70.5672 143.798 66.8609 145.886V145.938ZM154.401 144.894C152.224 141.189 159.695 128.69 172.226 129.578C176.807 130.021 181.02 132.011 183.992 135.135C185.669 136.623 190.64 141.633 189.287 144.607C185.669 145.129 186.669 144.451 185.081 141.633C181.198 134.457 169.343 128.038 160.695 137.275C155.724 142.494 159.519 145.103 154.371 144.894H154.401ZM200.318 112.435C201.944 111.16 203.846 110.192 205.907 109.59L210.701 112.852C210.378 120.236 203.053 119.349 201.553 116.609L200.318 112.435ZM193.082 88.0115C200.994 82.0884 201.906 85.4022 203.612 86.6025C205.318 87.8028 208.319 87.3592 203.612 95.4219L195.023 95.2654C193.931 92.954 193.247 90.5074 192.993 88.0115H193.082ZM161.784 94.7435C159.195 92.4473 160.607 91.8733 159.195 88.7682C158.019 86.1589 157.43 85.063 160.284 83.4192C168.255 78.9312 167.255 78.6963 171.638 82.245C174.815 84.8543 178.521 84.3846 175.491 89.3423C172.462 94.2999 174.815 95.4219 168.343 94.7435C164.637 94.3782 165.402 95.996 161.784 94.7435ZM112.366 56.3608C113.543 55.7606 114.955 55.3953 116.131 54.743C117.308 54.0907 119.926 50.4377 123.632 52.9687C124.309 53.4123 124.397 53.7776 124.985 54.2994C127.75 56.7261 131.692 56.5695 129.692 60.9531C129.015 62.4143 128.839 62.049 127.75 64.5018C125.662 69.0158 123.956 66.7197 120.426 66.9284C111.601 67.372 115.72 67.7373 113.131 61.475C112.013 58.8657 111.278 60.2747 112.366 56.2564V56.3608ZM156.489 58.6569C153.195 56.8043 154.812 56.5695 153.871 53.7776C152.959 50.5159 150.282 49.5766 155.077 46.9673C160.372 44.358 157.607 43.8622 163.402 43.784C164.295 45.0233 165.442 46.1031 166.784 46.9673C172.226 50.0724 171.226 50.0724 168.961 54.2211C167.52 56.6478 168.961 56.3608 166.843 58.2134C163.434 58.9301 159.909 59.1068 156.43 58.7352L156.489 58.6569ZM98.3057 27.1367C99.4824 26.2495 103.365 23.6663 105.218 23.8229C107.584 24.7471 109.7 26.1081 111.425 27.8151C111.079 30.2148 110.199 32.5297 108.836 34.6253L100.424 34.4688C99.2199 32.1596 98.5021 29.6748 98.3057 27.1367ZM39.8577 117.418C26.4738 121.071 22.0321 122.924 14.1194 130.465C10.2894 133.974 7.59817 138.336 6.32976 143.089C5.06134 147.842 5.26274 152.811 6.9127 157.471C13.2076 173.362 36.3279 183.955 61.8015 178.032C70.8025 175.971 68.5376 173.883 75.862 178.189C80.1849 180.64 84.7777 182.694 89.5694 184.321C114.896 193.088 150.018 191.783 173.55 179.807C186.081 173.44 181.374 169.161 188.434 173.153C203.495 181.659 229.321 176.623 240.764 159.402C251.765 142.676 244.705 121.306 221.232 113.687C221.232 112.121 228.88 100.432 213.407 87.2809C209.953 83.9406 205.822 81.2056 201.23 79.2182C194.905 76.4002 191.64 76.6089 184.669 75.0694C184.404 72.3297 188.199 60.353 179.198 50.9595C173.05 44.5146 166.225 43.1316 155.901 40.157C138.516 35.1994 121.279 25.5972 127.339 5.21859C110.748 3.88785 96.0408 14.4816 89.8342 21.6571C81.4214 31.3115 72.4204 49.5766 74.5089 64.0582C74.9207 66.6675 76.2738 67.4503 73.8323 68.207C72.6557 68.494 65.596 67.6851 61.3897 68.7027C43.3876 73.0081 32.6216 91.7167 36.4162 107.607C37.328 111.391 39.7695 114.418 39.8577 117.444V117.418Z" fill="#F298A3"/>
<path fill-rule="evenodd" clip-rule="evenodd" d="M87.628 213.153L91.3343 217.015L88.0693 187.347C94.5406 188.678 99.8354 190.531 106.895 191.653C114.187 192.628 121.552 193.116 128.927 193.114L128.662 224.425H129.78L132.045 223.016L132.633 193.088C145.488 190.479 145.664 192.723 162.725 187.687C165.667 186.799 168.108 185.469 170.726 185.077L168.785 213.962C169.892 215.344 170.875 216.801 171.726 218.32L174.521 183.12C180.139 180.015 183.933 176.519 185.787 175.71C198.553 180.224 199.406 180.929 214.878 179.78L197.082 253.102C190.787 254.354 176.138 257.772 169.844 257.485C169.844 253.702 171.02 249.657 169.844 245.926L168.314 244.073C166.637 245.352 167.637 244.073 166.873 245.926C166.108 247.779 166.873 254.954 165.549 257.981C158.725 259.703 139.811 260.199 131.486 260.199L131.721 246.761L128.192 246.161L127.956 260.068C122.897 260.721 101.041 260.434 97.5998 258.816C95.6584 256.207 96.2467 249.631 95.2466 246.37L92.0403 244.961L93.1287 258.738C84.1182 258.098 75.178 256.833 66.3903 254.954C63.684 246.683 45.3584 186.017 45.7996 182.833C52.2009 182.951 58.5833 182.176 64.7136 180.537C68.7435 179.441 69.3318 178.189 72.8616 180.172C81.3626 184.973 83.8041 184.321 84.4512 188.235L87.628 213.153ZM41.6226 182.912L62.2133 253.832C44.2994 251.406 46.0643 247.413 43.6229 241.125C40.6814 233.062 20.9143 180.459 20.0907 176.336C23.1793 177.223 26.1208 178.945 30.239 180.25L41.6226 182.912ZM218.82 178.319C228.497 176.623 233.527 170.778 238.44 167.882C237.41 173.101 218.496 225.965 215.143 235.724C211.26 246.735 212.201 248.77 206.966 250.44C205.112 251.174 203.112 251.573 201.083 251.614L218.82 178.319ZM39.8577 117.418C39.8577 114.391 37.328 111.365 36.4162 107.581C32.6216 91.7167 43.3876 73.0603 61.3897 68.7027C65.596 67.6851 72.6557 68.494 73.8323 68.207C76.2738 67.4503 74.9207 66.5631 74.5089 64.0582C72.4204 49.5766 81.4214 31.3115 89.8342 21.605C96.0408 14.4294 110.748 3.83566 127.339 5.21859C121.279 25.5972 138.516 35.1994 155.901 40.157C166.225 43.1316 173.05 44.5146 179.198 50.9595C188.199 60.353 184.404 72.3297 184.669 75.0694C191.64 76.635 194.905 76.4002 201.23 79.2182C205.822 81.2056 209.953 83.9406 213.407 87.2809C228.88 100.327 221.232 112.121 221.232 113.687C244.764 121.306 251.765 142.676 240.764 159.402C229.321 176.623 203.495 181.659 188.434 173.153C181.374 169.161 186.081 173.44 173.55 179.807C150.018 191.783 114.896 193.088 89.5694 184.321C84.7777 182.694 80.1849 180.64 75.8619 178.189C68.5376 173.883 70.8025 175.971 61.8015 178.032C36.4161 183.955 13.2075 173.362 6.91269 157.471C5.26273 152.811 5.06133 147.842 6.32975 143.089C7.59816 138.336 10.2894 133.974 14.1194 130.465C22.0321 122.924 26.4738 121.071 39.8577 117.418ZM190.817 70.9728C191.574 62.3071 188.552 53.7142 182.374 46.9673C170.02 33.4251 136.134 37.9391 131.339 14.9513C130.074 8.94988 134.016 5.63608 133.104 3.18334C129.78 -5.40124 79.7153 1.53948 70.2142 49.5766C69.3906 53.9602 69.5671 59.2049 68.7141 63.1971C47.0939 63.7973 33.4158 79.6879 30.8567 95.0044C28.9447 106.381 32.4745 109.721 32.6216 114.235C27.9041 115.952 23.3497 118.003 19.0023 120.367C14.9985 122.81 11.3782 125.715 8.23638 129.004C4.7506 132.807 2.28737 137.266 1.03358 142.04C-0.220211 146.814 -0.231614 151.779 1.00024 156.558C5.05954 170.7 10.7661 167.36 15.4725 180.041C18.767 189.148 21.8556 197.811 25.3266 207.048C28.7976 216.284 31.9745 224.921 35.2984 234.471C42.1815 253.258 39.593 252.736 51.1826 256.207C92.658 268.183 153.959 267.009 196.258 258.059C212.819 254.589 214.084 254.876 216.349 248.222L247.264 158.88C255.236 137.275 251.118 123.602 228.409 111.025C228.262 100.432 228.262 93.4128 217.496 83.7323C208.672 75.5913 201.347 74.1823 190.817 70.9989V70.9728Z" fill="#3C2021"/>
<path fill-rule="evenodd" clip-rule="evenodd" d="M142.576 164.647C137.546 168.352 124.515 168.143 119.867 164.151C124.75 159.689 138.046 160.289 142.576 164.647ZM105.071 177.823C118.102 179.154 140.164 178.424 153.783 178.11C153.827 175.329 153.214 172.571 151.983 170.013C150.752 167.455 148.931 165.154 146.636 163.259C144.341 161.364 141.625 159.916 138.661 159.009C135.696 158.102 132.551 157.756 129.427 157.993C123.332 158.38 117.579 160.641 113.161 164.386C110.366 166.603 104.483 172.814 105.071 177.928V177.823Z" fill="#633238"/>
<path fill-rule="evenodd" clip-rule="evenodd" d="M79.6566 160.289C60.9779 163.681 69.0377 177.302 86.4515 174.484C103.865 171.666 97.2175 157.027 79.6566 160.289Z" fill="#EF8084" stroke="#F08084" stroke-miterlimit="10"/>
<path fill-rule="evenodd" clip-rule="evenodd" d="M169.049 158.071C150.871 161.828 157.872 174.771 174.168 171.744C189.728 168.795 184.433 154.888 169.049 158.071Z" fill="#EF8084"/>
<path fill-rule="evenodd" clip-rule="evenodd" d="M66.8608 145.938C70.5671 143.85 68.714 133.648 83.1863 133.57C86.2151 133.536 89.1949 134.25 91.7923 135.632C94.3897 137.015 96.5024 139.011 97.8939 141.398C99.5705 144.007 98.5704 144.503 102.012 144.868C104.042 140.067 94.6876 130.073 82.5097 130.517C80.1089 130.528 77.7358 130.973 75.5357 131.826C73.3356 132.678 71.3546 133.92 69.7141 135.475C67.7139 137.405 62.2426 144.294 66.7726 145.912L66.8608 145.938Z" fill="#3C2021"/>
<path fill-rule="evenodd" clip-rule="evenodd" d="M154.4 144.894C159.548 145.051 155.754 142.598 160.725 137.275C169.373 128.038 181.315 134.457 185.11 141.633C186.698 144.451 185.698 145.129 189.316 144.607C190.669 141.633 185.698 136.623 184.022 135.135C181.05 132.011 176.837 130.021 172.255 129.578C159.725 128.69 152.253 141.189 154.43 144.894H154.4Z" fill="#3C2021"/>
<path fill-rule="evenodd" clip-rule="evenodd" d="M218.82 178.319L200.994 251.693C203.024 251.651 205.023 251.252 206.877 250.518C212.26 248.953 211.172 246.813 215.055 235.802C218.408 226.043 237.322 173.179 238.351 167.96C233.645 170.778 228.497 176.623 218.82 178.319Z" fill="#EB5878"/>
<path fill-rule="evenodd" clip-rule="evenodd" d="M185.787 175.658C183.934 176.467 180.139 179.963 174.521 183.068L171.726 218.268C170.876 216.749 169.892 215.292 168.785 213.91L170.608 185.051C167.99 185.573 165.549 186.904 162.608 187.661C145.547 192.696 145.37 190.557 132.516 193.062L131.927 222.938L129.662 224.347H128.545L128.809 193.036C121.435 193.038 114.07 192.55 106.777 191.574C99.6295 190.452 94.423 188.6 87.9517 187.269L91.2168 216.937L87.5105 213.075L84.3925 188.156C83.7453 184.242 81.3039 184.895 72.8029 180.094C69.273 178.11 68.6847 179.363 64.6549 180.459C58.5104 182.074 52.1179 182.822 45.7115 182.677C45.2114 185.86 63.5371 246.526 66.3021 254.798C75.0899 256.676 84.03 257.941 93.0405 258.581L91.9522 244.804L95.1584 246.213C96.1585 249.475 95.5703 255.972 97.5117 258.659C100.953 260.277 122.809 260.564 127.868 259.912L128.103 246.004L131.633 246.604L131.398 260.042C139.722 260.042 158.636 259.547 165.461 257.824C166.784 254.798 166.049 247.544 166.784 245.77C167.52 243.995 166.549 245.195 168.226 243.917L169.755 245.77C170.844 249.396 169.579 253.597 169.755 257.329C176.05 257.616 190.699 254.198 196.994 252.945L214.908 179.65C199.406 180.981 198.553 180.172 185.787 175.658Z" fill="#EB5878"/>
<path fill-rule="evenodd" clip-rule="evenodd" d="M30.1802 180.25C26.0621 178.998 23.1206 177.223 20.032 176.336C20.7674 180.459 40.4461 233.062 43.5642 241.125C46.0056 247.413 44.2407 251.406 62.1546 253.832L41.5639 182.912L30.1802 180.25Z" fill="#EB5878"/>
<path fill-rule="evenodd" clip-rule="evenodd" d="M109.66 38.2784L105.042 35.8256C104.875 35.7434 104.688 35.7002 104.498 35.7002C104.307 35.7002 104.12 35.7434 103.953 35.8256L99.0705 37.8087C98.8712 37.8916 98.6496 37.9232 98.4311 37.8999C98.2125 37.8767 98.0057 37.7995 97.8341 37.6772C97.6625 37.5549 97.5331 37.3923 97.4604 37.208C97.3878 37.0237 97.3749 36.825 97.4232 36.6345L98.6292 31.9639C98.6701 31.7979 98.6647 31.6256 98.6134 31.4619C98.5621 31.2982 98.4666 31.148 98.3351 31.0245L94.6876 27.502C94.5381 27.3584 94.4371 27.1806 94.3959 26.9886C94.3548 26.7967 94.3752 26.5983 94.4549 26.4161C94.5346 26.234 94.6704 26.0753 94.8467 25.9582C95.023 25.8411 95.2329 25.7703 95.4524 25.7537L100.835 25.3363C101.024 25.3228 101.206 25.2681 101.365 25.177C101.524 25.086 101.656 24.9614 101.747 24.8144L104.395 20.6395C104.498 20.4707 104.651 20.3298 104.838 20.2317C105.024 20.1335 105.237 20.0817 105.454 20.0817C105.67 20.0817 105.883 20.1335 106.069 20.2317C106.256 20.3298 106.409 20.4707 106.513 20.6395L108.63 25.0492C108.698 25.2035 108.809 25.3398 108.954 25.4449C109.098 25.55 109.27 25.6204 109.454 25.6494L114.749 26.6148C114.961 26.656 115.156 26.7484 115.313 26.8818C115.469 27.0153 115.581 27.1846 115.636 27.371C115.691 27.5574 115.686 27.7536 115.623 27.9379C115.56 28.1222 115.441 28.2874 115.278 28.4152L111.219 31.5464C111.074 31.6581 110.963 31.8002 110.897 31.9598C110.83 32.1193 110.809 32.2912 110.837 32.4596L111.454 37.2086C111.484 37.4063 111.451 37.6074 111.358 37.7892C111.266 37.9711 111.118 38.1264 110.932 38.2377C110.745 38.3489 110.527 38.4117 110.302 38.4189C110.078 38.4261 109.855 38.3774 109.66 38.2784Z" fill="white"/>
<path fill-rule="evenodd" clip-rule="evenodd" d="M127.397 70.7641L121.514 67.6329C121.3 67.5366 121.063 67.4865 120.823 67.4865C120.583 67.4865 120.346 67.5366 120.132 67.6329L113.866 70.2422C113.611 70.3365 113.331 70.3675 113.057 70.3319C112.783 70.2963 112.526 70.1955 112.311 70.0402C112.097 69.8849 111.934 69.6809 111.84 69.4499C111.746 69.219 111.725 68.9698 111.778 68.7288L113.278 62.6231C113.339 62.4129 113.338 62.1924 113.277 61.9824C113.215 61.7724 113.094 61.5799 112.925 61.4228L108.277 56.9348C108.091 56.7518 107.965 56.5263 107.914 56.2835C107.864 56.0407 107.89 55.7903 107.991 55.5601C108.092 55.33 108.263 55.1292 108.485 54.9803C108.707 54.8314 108.971 54.7402 109.248 54.7169L116.102 54.169C116.343 54.1545 116.577 54.0874 116.782 53.9736C116.988 53.8598 117.158 53.7029 117.278 53.5166L120.661 48.298C120.8 48.0841 121.002 47.9084 121.247 47.7906C121.491 47.6729 121.767 47.6177 122.045 47.6312C122.323 47.6447 122.591 47.7265 122.819 47.8673C123.047 48.0081 123.227 48.2024 123.338 48.4285L126.044 54.0385C126.133 54.2417 126.28 54.4208 126.471 54.5581C126.662 54.6954 126.89 54.7861 127.133 54.8213L133.869 56.0216C134.146 56.0702 134.402 56.1873 134.607 56.3593C134.813 56.5314 134.959 56.7514 135.03 56.994C135.101 57.2367 135.093 57.4921 135.007 57.7309C134.921 57.9697 134.761 58.1822 134.545 58.3438L129.427 62.2578C129.241 62.4019 129.098 62.5845 129.011 62.7893C128.924 62.9941 128.895 63.2148 128.927 63.432L129.721 69.4855C129.759 69.7394 129.713 69.9975 129.59 70.229C129.466 70.4604 129.27 70.6553 129.025 70.7903C128.779 70.9253 128.495 70.9946 128.207 70.9899C127.918 70.9853 127.637 70.9069 127.397 70.7641Z" fill="white"/>
<path d="M159.754 63.6407C166.415 63.6407 171.814 58.851 171.814 52.9426C171.814 47.0342 166.415 42.2445 159.754 42.2445C153.093 42.2445 147.694 47.0342 147.694 52.9426C147.694 58.851 153.093 63.6407 159.754 63.6407Z" fill="#F298A3"/>
<path fill-rule="evenodd" clip-rule="evenodd" d="M166.196 62.3361L161.401 60.7444C161.243 60.669 161.066 60.6296 160.887 60.6296C160.707 60.6296 160.53 60.669 160.372 60.7444L156.195 63.3537C156.023 63.462 155.821 63.5253 155.611 63.5361C155.401 63.547 155.192 63.505 155.007 63.415C154.823 63.3251 154.671 63.1908 154.569 63.0276C154.467 62.8644 154.418 62.679 154.43 62.4926L154.665 57.9524C154.666 57.7929 154.628 57.6351 154.551 57.4906C154.475 57.3461 154.363 57.2186 154.224 57.1175L150.018 54.4821C149.849 54.374 149.718 54.2252 149.641 54.0533C149.565 53.8813 149.546 53.6935 149.586 53.5122C149.626 53.3308 149.724 53.1635 149.869 53.0302C150.013 52.8968 150.197 52.803 150.4 52.7599L155.312 51.5336C155.489 51.4942 155.651 51.4162 155.785 51.3068C155.918 51.1974 156.019 51.0601 156.077 50.9073L157.754 46.6281C157.823 46.4563 157.943 46.3046 158.103 46.1898C158.262 46.0749 158.455 46.0013 158.658 45.977C158.862 45.9527 159.069 45.9788 159.257 46.0522C159.446 46.1256 159.607 46.2436 159.725 46.3933L162.666 50.1767C162.768 50.3092 162.904 50.4184 163.062 50.4955C163.221 50.5725 163.397 50.6153 163.578 50.6203H168.696C168.906 50.6226 169.112 50.6774 169.288 50.7784C169.465 50.8795 169.606 51.0227 169.695 51.1917C169.784 51.3606 169.818 51.5484 169.792 51.7335C169.766 51.9186 169.682 52.0935 169.549 52.2381L166.372 55.7867C166.261 55.9144 166.184 56.0634 166.148 56.2218C166.113 56.3803 166.119 56.544 166.167 56.7L167.667 61.1097C167.731 61.2881 167.737 61.4792 167.684 61.6606C167.632 61.842 167.522 62.0065 167.368 62.1348C167.214 62.2632 167.022 62.3502 166.815 62.3858C166.607 62.4214 166.393 62.4042 166.196 62.3361Z" fill="white"/>
<path d="M167.255 98.2139C173.916 98.2139 179.315 93.4242 179.315 87.5158C179.315 81.6074 173.916 76.8176 167.255 76.8176C160.594 76.8176 155.195 81.6074 155.195 87.5158C155.195 93.4242 160.594 98.2139 167.255 98.2139Z" fill="#F298A3"/>
<path fill-rule="evenodd" clip-rule="evenodd" d="M170.608 93.204L165.814 91.6124C165.655 91.537 165.478 91.4975 165.299 91.4975C165.119 91.4975 164.942 91.537 164.784 91.6124L160.607 94.2216C160.436 94.33 160.233 94.3932 160.023 94.4041C159.813 94.4149 159.604 94.373 159.42 94.283C159.235 94.1931 159.083 94.0588 158.981 93.8956C158.879 93.7324 158.831 93.547 158.842 93.3606L159.048 88.8465C159.062 88.6854 159.028 88.5239 158.951 88.3777C158.874 88.2314 158.755 88.1053 158.607 88.0115L154.548 85.2718C154.38 85.1618 154.251 85.0126 154.174 84.841C154.098 84.6695 154.077 84.4823 154.113 84.3006C154.15 84.1189 154.243 83.9499 154.382 83.8126C154.521 83.6753 154.701 83.5752 154.901 83.5235L159.842 82.3233C160.018 82.2752 160.179 82.1912 160.312 82.0779C160.445 81.9646 160.546 81.8252 160.607 81.6709L162.254 77.3917C162.319 77.2136 162.44 77.0554 162.602 76.9356C162.765 76.8158 162.962 76.7392 163.171 76.7146C163.38 76.69 163.593 76.7185 163.785 76.7968C163.977 76.875 164.139 76.9999 164.255 77.1569L167.196 80.9403C167.292 81.0776 167.427 81.1906 167.586 81.2683C167.746 81.346 167.926 81.3858 168.108 81.3839H173.226C173.431 81.3898 173.631 81.4457 173.802 81.5454C173.974 81.6451 174.111 81.7848 174.199 81.9492C174.288 82.1136 174.323 82.2963 174.302 82.4773C174.281 82.6584 174.204 82.8308 174.079 82.9756L170.608 86.733C170.49 86.8574 170.409 87.0064 170.373 87.1661C170.337 87.3258 170.347 87.4909 170.402 87.6462L171.903 91.9776C171.951 92.14 171.952 92.3105 171.906 92.4733C171.859 92.6361 171.767 92.7858 171.638 92.9084C171.508 93.0309 171.346 93.1224 171.166 93.1741C170.986 93.2258 170.794 93.2361 170.608 93.204Z" fill="white"/>
<path d="M198.553 104.033C205.214 104.033 210.613 99.2429 210.613 93.3345C210.613 87.4261 205.214 82.6364 198.553 82.6364C191.892 82.6364 186.493 87.4261 186.493 93.3345C186.493 99.2429 191.892 104.033 198.553 104.033Z" fill="#F298A3"/>
<path d="M200.994 122.585C207.655 122.585 213.055 117.795 213.055 111.887C213.055 105.978 207.655 101.188 200.994 101.188C194.334 101.188 188.934 105.978 188.934 111.887C188.934 117.795 194.334 122.585 200.994 122.585Z" fill="#F298A3"/>
<path fill-rule="evenodd" clip-rule="evenodd" d="M202.965 119.193L199.671 118.123C199.567 118.073 199.451 118.046 199.332 118.046C199.214 118.046 199.098 118.073 198.994 118.123L196.053 119.897C195.935 119.972 195.795 120.015 195.65 120.022C195.506 120.028 195.362 119.999 195.235 119.936C195.109 119.873 195.005 119.779 194.937 119.666C194.868 119.553 194.837 119.425 194.847 119.297L195.023 116.218C195.024 116.106 194.996 115.996 194.939 115.896C194.883 115.797 194.801 115.71 194.7 115.644L191.905 113.765C191.79 113.689 191.701 113.585 191.649 113.466C191.597 113.347 191.584 113.217 191.612 113.091C191.64 112.966 191.707 112.85 191.805 112.757C191.904 112.664 192.03 112.597 192.17 112.565L195.553 111.756C195.667 111.718 195.771 111.659 195.857 111.582C195.943 111.506 196.01 111.414 196.053 111.313L197.2 108.39C197.247 108.272 197.33 108.167 197.44 108.089C197.55 108.01 197.682 107.959 197.822 107.943C197.962 107.927 198.105 107.945 198.234 107.997C198.363 108.048 198.473 108.13 198.553 108.234L200.494 110.843C200.557 110.939 200.647 111.018 200.755 111.073C200.864 111.128 200.987 111.157 201.112 111.156H204.612C204.754 111.158 204.893 111.196 205.012 111.264C205.132 111.332 205.227 111.429 205.289 111.543C205.35 111.656 205.374 111.783 205.358 111.908C205.343 112.034 205.288 112.153 205.201 112.252L202.965 114.809C202.885 114.895 202.829 114.997 202.803 115.106C202.778 115.215 202.783 115.328 202.818 115.435L203.848 118.384C203.874 118.492 203.869 118.605 203.835 118.712C203.8 118.819 203.736 118.917 203.649 118.997C203.562 119.076 203.454 119.136 203.335 119.17C203.215 119.204 203.089 119.212 202.965 119.193Z" fill="white"/>
<path fill-rule="evenodd" clip-rule="evenodd" d="M200.23 96.857L197.082 95.7611C196.973 95.7108 196.852 95.6845 196.729 95.6845C196.606 95.6845 196.485 95.7108 196.376 95.7611L193.435 97.5354C193.317 97.6099 193.177 97.6531 193.032 97.6599C192.888 97.6668 192.744 97.637 192.617 97.5742C192.491 97.5113 192.387 97.4178 192.319 97.3047C192.25 97.1916 192.219 97.0635 192.229 96.9353V93.8302C192.239 93.724 192.217 93.6172 192.165 93.5209C192.114 93.4245 192.034 93.3422 191.934 93.2823L188.993 91.4036C188.877 91.3272 188.789 91.2234 188.737 91.1041C188.685 90.9849 188.672 90.855 188.7 90.7296C188.727 90.6042 188.794 90.4882 188.893 90.3951C188.992 90.302 189.118 90.2355 189.258 90.2033L192.611 89.3944C192.73 89.3582 192.838 89.2999 192.93 89.2234C193.021 89.1469 193.093 89.054 193.141 88.9509L194.552 86.1067C194.617 85.9975 194.715 85.906 194.834 85.8422C194.953 85.7784 195.09 85.7447 195.229 85.7447C195.368 85.7447 195.505 85.7784 195.624 85.8422C195.743 85.906 195.841 85.9975 195.906 86.1067L197.818 88.716C197.894 88.8065 197.991 88.8814 198.102 88.9354C198.214 88.9894 198.338 89.0214 198.465 89.0291H201.936C202.078 89.0315 202.216 89.069 202.336 89.1372C202.455 89.2055 202.551 89.302 202.612 89.4158C202.673 89.5296 202.697 89.6562 202.681 89.7815C202.666 89.9068 202.611 90.0257 202.524 90.1251L200.347 92.5517C200.291 92.6484 200.261 92.7558 200.261 92.8648C200.261 92.9738 200.291 93.0812 200.347 93.1779L201.347 96.1264C201.377 96.2533 201.364 96.385 201.312 96.5059C201.26 96.6268 201.169 96.7319 201.052 96.8087C200.934 96.8856 200.794 96.931 200.649 96.9395C200.503 96.9481 200.358 96.9194 200.23 96.857Z" fill="white"/>
<path d="M85.834 184.869L95.0002 259" stroke="#3C2021" stroke-width="3.5" stroke-miterlimit="10"/>
<path d="M43.6228 180.276L65.0665 257.12" stroke="#3C2021" stroke-width="1.5" stroke-miterlimit="10"/>
<path d="M130.839 189.983L129.339 264.948" stroke="#3C2021" stroke-width="3.5" stroke-miterlimit="10"/>
<path d="M173.285 181.216L167.314 260.303" stroke="#3C2021" stroke-width="3.5" stroke-miterlimit="10"/>
<path d="M129.133 172.187C136.557 172.187 142.576 169.419 142.576 166.003C142.576 162.588 136.557 159.819 129.133 159.819C121.709 159.819 115.69 162.588 115.69 166.003C115.69 169.419 121.709 172.187 129.133 172.187Z" fill="#633238"/>
<path d="M216.378 177.615L198.553 253.832" stroke="#3C2021" stroke-width="1.5" stroke-miterlimit="10"/>
<path fill-rule="evenodd" clip-rule="evenodd" d="M143.782 174.614C143.782 169.395 137.752 165.351 130.339 165.351C122.926 165.351 116.926 169.604 116.926 174.614C116.949 175.088 117.018 175.559 117.131 176.023H143.605C143.709 175.559 143.768 175.087 143.782 174.614Z" fill="#EF8084"/>
<path fill-rule="evenodd" clip-rule="evenodd" d="M57.9775 165.481C64.8901 162.063 61.3603 155.044 59.3601 150.348C54.9184 153.348 51.212 157.575 51.8298 162.872C52.3004 165.064 55.5361 165.873 57.9775 165.481Z" fill="#A7CBED"/>
<path fill-rule="evenodd" clip-rule="evenodd" d="M195.67 164.777C188.757 161.385 192.287 154.34 194.288 149.643C198.759 152.644 202.436 156.871 201.818 162.194C201.377 164.386 198.141 165.194 195.67 164.777Z" fill="#A7CBED"/>
</svg>
