<svg width="190" height="172" viewBox="0 0 190 172" fill="none" xmlns="http://www.w3.org/2000/svg">
<path fill-rule="evenodd" clip-rule="evenodd" d="M95.046 151.866C93.9575 151.866 84.4836 142.965 83.4412 142.096C81.249 140.374 79.716 138.896 77.6618 137.173L74.6877 134.582C73.584 133.546 72.8941 133.15 71.6984 132.022L63.2056 124.691C62.1018 123.822 61.4426 122.862 60.4002 121.962C59.4181 121.244 58.4954 120.449 57.6408 119.585L48.918 111.674C43.448 106.457 38.2689 100.947 33.4041 95.1678C28.0999 88.2635 24.4973 83.5081 21.0328 74.79C17.047 64.6697 15.6059 49.4587 20.7721 39.186C22.5845 35.1332 25.1425 31.4527 28.3145 28.3341C29.84 26.7658 31.5136 25.3469 33.3121 24.0969L37.4358 21.5973C42.3632 19.1375 47.7334 17.6767 53.2339 17.2999C58.7345 16.9231 64.2555 17.6379 69.4755 19.4026C76.4354 21.9022 78.6735 23.6702 84.2383 27.8616C89.8031 32.053 88.0555 34.8117 96.5023 34.8117C100.182 34.8117 103.554 28.9894 109.609 25.0114C118.363 19.2197 124.372 17.2383 135.854 17.2383C140.954 17.3213 145.976 18.4853 150.587 20.6524C151.606 21.1046 152.599 21.6135 153.561 22.1765C172.462 33.1961 176.709 54.275 168.814 73.5859C165.441 81.8925 159.785 89.8333 154.097 96.7529C153.607 97.3169 153.346 97.5303 152.825 98.0942C150.372 100.594 149.498 102.118 146.309 105.166L140.913 110.836L135.563 116.14L112.737 136.777C111.633 137.859 110.882 138.21 109.671 139.322L104.045 144.337C102.696 145.419 96.0271 151.866 95.0153 151.866H95.046ZM0 52.3546V52.7509C0 60.6612 0.16863 67.7789 2.85138 75.6131C5.17897 83.3745 8.72841 90.7205 13.3678 97.3778C16.4338 101.95 18.4573 104.115 21.6919 108.184L24.7579 111.72C25.3405 112.284 25.7237 112.589 26.2909 113.244L31.1046 118.335C35.351 122.526 41.5749 129.004 46.0973 132.464L54.6821 140.084C55.3413 140.679 55.6939 141.167 56.3531 141.715L80.4518 162.596C83.3952 165.141 90.3243 172 94.2488 172C98.8478 172 100.212 170.628 103.983 167.336L114.3 158.511C117.765 155.875 150.203 126.504 151.951 124.249C154.281 121.322 158.083 118.472 159.846 116.308L164.445 111.034C169.586 105.273 174.261 99.1166 178.426 92.6225C181 88.4373 183.255 84.0659 185.171 79.5453C189.172 68.5715 189.954 64.5935 189.954 52.4003C189.954 43.0725 185.217 30.285 180.051 23.4416C178.211 20.9027 176.159 18.5218 173.919 16.3238C164.705 7.16368 151.077 0.0764074 137.311 0.0764074C125.967 0.0764074 121.368 0.381237 110.545 4.75553C107.748 5.89751 105.06 7.28488 102.512 8.90121C101.181 9.64213 99.8961 10.4616 98.6638 11.3551C92.1333 16.4152 97.1308 13.306 83.7631 6.78265C79.5135 4.55296 75.0101 2.83873 70.3493 1.67676C57.1502 -1.12767 43.7825 -0.73139 31.6871 5.30423C27.3581 7.28171 23.3073 9.81288 19.6377 12.8335C8.63079 21.5059 0 38.4087 0 52.3546Z" fill="#EB5878"/>
<path fill-rule="evenodd" clip-rule="evenodd" d="M83.5025 68.8153H60.4769V91.8909H83.5025V114.57H106.498V91.8909H129.523V68.8153H106.498V46.136H83.5025V68.8153Z" fill="#EB5878"/>
</svg>
