<svg width="30" height="30" viewBox="0 0 30 30" fill="none" xmlns="http://www.w3.org/2000/svg">
<path fill-rule="evenodd" clip-rule="evenodd" d="M6.79695 15.7031C6.06342 4.84493 22.4229 3.69077 23.1414 14.387C23.8891 25.5176 7.49198 25.9943 6.79695 15.7031ZM7.81247 0H20.7461C21.3248 0.0354606 21.8044 0.0756492 22.1453 0.120228C26.8901 0.740451 29.0887 2.66224 29.8215 7.44419C29.8902 7.89268 29.9495 8.41818 30 8.99939V21.0065C29.9642 21.4229 29.924 21.8057 29.8798 22.1453C29.2595 26.8901 27.3377 29.0887 22.5558 29.8215C22.1073 29.8902 21.5818 29.9495 21.0006 30H8.99348C8.57707 29.9642 8.19427 29.924 7.85469 29.8798C3.10989 29.2596 0.911338 27.3378 0.178486 22.5558C0.118541 22.1649 0.0584255 21.75 0 21.3169V8.4148C0.858653 4.20259 2.93546 0.730488 7.3243 0.0585939C7.46192 0.0374864 7.62639 0.018068 7.81247 0V0ZM21.2108 6.2696C21.2314 3.10618 26.2356 2.93782 26.1802 6.32144C26.126 9.64562 21.1907 9.39858 21.2108 6.2696Z" fill="#F18E9F"/>
<path fill-rule="evenodd" clip-rule="evenodd" d="M14.1794 8.61327C6.05438 9.47412 7.02246 22.3286 15.7714 21.3892C24.0559 20.4997 22.8936 7.68978 14.1794 8.61327V8.61327Z" fill="#F18E9F"/>
<path fill-rule="evenodd" clip-rule="evenodd" d="M23.6709 5.56626C22.565 5.69172 22.909 7.15995 23.8259 7.01642C24.7362 6.87391 24.6076 5.45987 23.6709 5.56626V5.56626Z" fill="#F18E9F"/>
</svg>
