<svg width="30" height="30" viewBox="0 0 30 30" fill="none" xmlns="http://www.w3.org/2000/svg">
<path fill-rule="evenodd" clip-rule="evenodd" d="M12.566 14.9479C12.1209 14.9479 11.2846 15.4533 10.8888 15.6839L7.14561 17.7182C6.86833 17.8885 6.71689 18.0254 6.28291 18.0254C6.2913 17.6511 6.50928 17.5361 6.99587 16.9819C7.28666 16.6508 7.61713 16.396 7.90792 16.0649L12.6898 10.9687C13.1586 10.3934 13.4127 10.277 14.2771 11.3999L16.1635 13.3914C16.9606 14.2994 16.95 14.5869 18.0031 13.953L23.0863 11.2109C23.6396 11.2109 23.0143 11.7784 22.9094 11.9129L21.5718 13.3557C21.3293 13.6084 21.1237 13.8013 20.8751 14.0493C20.6259 14.2981 20.5145 14.4901 20.2556 14.7468L19.2699 15.8099C18.9217 16.1875 18.578 16.4481 18.2336 16.8955C17.9628 17.247 17.5628 17.5668 17.259 17.8964C16.4072 18.8201 16.5841 18.9412 15.3604 17.7141L13.3182 15.5858C13.2095 15.455 12.8647 14.9479 12.566 14.9479V14.9479ZM0 13.629C0 15.636 0.221967 17.0119 0.887015 18.6746C1.70009 20.7072 2.55056 21.9393 4.0729 23.4662L5.49358 24.7526C5.71853 25.1779 5.50282 29.0536 5.69848 29.8961C6.17342 30.1246 6.24508 29.9386 6.67338 29.7014L10.4699 27.5728C11.0128 27.2575 10.8478 27.3436 11.585 27.5092C14.3572 28.1318 17.4967 27.9137 20.1546 27.029C23.0129 26.0778 25.5817 24.237 27.3768 21.8158C28.4276 20.3986 29.188 18.7459 29.6327 16.9708C30.1368 14.958 30.1218 12.7042 29.589 10.6975C29.1738 9.13352 28.7556 8.26155 27.9778 6.9643C25.4728 2.78589 20.1959 0 15.342 0C11.9588 0 9.12966 0.749027 6.51611 2.43206C5.73019 2.93821 5.18018 3.38959 4.47802 3.97832C1.94907 6.09919 0 10.1286 0 13.629V13.629Z" fill="#F18E9F"/>
</svg>
