<svg width="40" height="30" viewBox="0 0 40 30" fill="none" xmlns="http://www.w3.org/2000/svg">
<path fill-rule="evenodd" clip-rule="evenodd" d="M39.9246 3.63003C39.6575 3.65049 39.146 3.86293 38.876 3.96C38.165 4.21551 36.1581 4.69653 35.4711 4.71053C36.3058 4.04168 36.4626 4.17813 37.5141 2.99241C38.4793 1.90391 38.4433 1.49904 38.9089 0.604363C38.4281 0.707583 38.1431 0.973707 37.7122 1.15784C37.2913 1.33782 36.8842 1.4955 36.4546 1.65517C35.6076 1.97021 34.603 2.20573 33.6741 2.4054C32.9692 1.43458 30.8456 0.457455 29.3719 0.176716C26.5616 -0.358457 24.3749 0.351005 22.2781 1.91114C21.5332 2.46539 20.8223 3.3353 20.3914 4.13367C19.9176 5.01189 19.3008 6.80308 19.4868 7.92157C19.5555 8.33506 19.5435 9.04206 19.6888 9.32126C18.542 9.07483 17.0954 9.24312 14.3074 8.44782C13.4778 8.21108 12.7207 7.99879 11.932 7.68452C11.1564 7.37532 10.4764 7.06997 9.76518 6.72862C7.98505 5.87425 6.18657 4.58716 4.70641 3.32468C4.54458 3.1867 4.43697 3.07348 4.27731 2.92796C3.92729 2.60891 3.02622 1.57687 2.73459 1.39674C2.5479 2.13573 0.937945 4.10721 1.94246 7.24195C2.89342 10.2106 4.92246 11.1598 5.15653 11.4823C4.00871 11.4823 2.5454 11.0254 1.56257 10.5459C1.56257 13.3833 3.13916 15.7443 5.40528 17.0883C5.97252 17.4245 6.63485 17.6896 7.27583 17.885L7.91631 18.0868C7.92799 18.0914 7.95285 18.1003 7.96937 18.11C7.59399 18.1388 7.0451 18.2863 6.2508 18.3264C5.46951 18.3661 5.06494 18.2289 4.45349 18.182C5.03574 20.4868 7.78868 22.7977 10.461 23.3045C10.8351 23.3756 11.5298 23.5042 11.9539 23.513C11.4113 24.2603 8.13453 25.6606 6.89195 25.9776C5.06227 26.4445 3.86373 26.6828 1.87506 26.6828C1.13464 26.6828 0.69153 26.6106 0 26.6106L0.28462 26.7804C2.36288 27.8659 2.81183 28.176 5.40061 28.9791C9.63404 30.2922 15.1509 30.3241 19.4051 29.1585C20.4161 28.8815 21.4209 28.5586 22.319 28.1714C22.8058 27.9614 23.2501 27.806 23.6885 27.5611C26.4465 26.0207 26.9555 25.7619 29.3576 23.5671C32.6996 20.5133 35.2871 15.1774 35.7701 11.0375C35.9107 9.83136 35.9399 8.79563 35.9399 7.44808C36.513 7.16857 37.659 6.1873 38.1481 5.73827C38.367 5.53737 38.4191 5.42553 38.6153 5.23232C38.8932 4.95851 39.8348 3.93985 39.9246 3.63003V3.63003Z" fill="#F18E9F"/>
<path fill-rule="evenodd" clip-rule="evenodd" d="M39.9219 3.63004H40L39.9347 3.5459L39.9219 3.63004Z" fill="#F18E9F"/>
</svg>
