<svg width="30" height="30" viewBox="0 0 30 30" fill="none" xmlns="http://www.w3.org/2000/svg">
<path fill-rule="evenodd" clip-rule="evenodd" d="M10.7812 13.5937C10.7812 14.192 12.1644 15.8853 12.6127 16.3325C12.6878 16.4075 12.7151 16.4398 12.7825 16.5143L13.7843 17.4462C14.4291 18.0493 16.637 19.336 17.2852 19.336C18.3062 19.336 18.9004 17.1093 19.7461 17.1093C20.0609 17.1093 20.7026 17.4108 20.9577 17.5385C21.3427 17.731 21.6854 17.8722 22.0705 18.0663L23.7087 18.889C24.0161 19.0668 24.0234 19.1768 24.0234 19.5703C24.0234 20.6651 23.6507 21.6596 22.8277 22.3004C20.6126 24.0253 18.5606 23.364 16.155 22.3996C14.8869 21.8912 14.0966 21.514 12.9831 20.7084C12.5997 20.4311 11.9743 19.971 11.6463 19.6427C11.4801 19.4761 11.3726 19.4297 11.2049 19.2638C9.38005 17.4583 6.32808 13.9238 6.32808 11.3085C6.32808 9.99934 6.45394 9.13018 7.27336 8.03504C7.82139 7.30249 8.56732 6.75184 9.57336 6.88688C10.3954 6.99711 10.395 6.8353 10.7235 7.49921C10.9076 7.87152 11.0932 8.33307 11.25 8.73045L12.0282 10.589C12.1774 10.9337 12.2461 11.0333 12.2461 11.4257C12.2461 12.1198 10.7812 13.1076 10.7812 13.5937V13.5937ZM0 14.5898V14.7349V15.1273C0.0015748 16.2583 0.0254597 16.6135 0.308006 18.0318C0.621916 19.6077 1.3727 21.5869 2.26076 22.9345C3.0416 24.1197 2.99068 23.343 1.91142 26.5794C1.74659 27.0741 1.02441 29.0148 0.996063 29.3555L6.0273 27.7656C7.04226 27.4251 6.74764 27.5881 7.53937 28.027C8.03609 28.3024 8.44724 28.5105 8.98491 28.7495C11.152 29.7131 12.9933 30 15.4102 30C17.6732 30 19.3287 29.4433 21.3034 28.6276C22.7424 28.0332 24.9558 26.4404 26.0329 25.1541L27.9831 22.5339C29.4601 20.0197 30 17.5522 30 14.5898C30 12.3295 29.4436 10.6722 28.6276 8.69659C28.1814 7.61614 27.2735 6.29003 26.5025 5.37244L26.0601 4.87743C23.4661 1.9416 19.3374 0 15.4102 0C12.4454 0 11.2176 0.331103 8.69659 1.37244C7.71365 1.77835 5.93688 2.9374 5.11168 3.70538L4.6147 4.14593C4.5231 4.22664 4.46798 4.29147 4.37979 4.37979C3.53898 5.2206 2.621 6.43766 2.01693 7.46614C0.816535 9.50971 0 12.1446 0 14.5898V14.5898Z" fill="#F18E9F"/>
</svg>
