<svg width="110" height="112" viewBox="0 0 110 112" fill="none" xmlns="http://www.w3.org/2000/svg">
<path fill-rule="evenodd" clip-rule="evenodd" d="M44.3544 57.5882L65.6733 57.6715L65.5718 109.352L44.299 109.268L44.3544 57.5882ZM98.8699 109.065C98.1592 109.75 69.208 109.639 68.2389 109.25L68.1559 58.8753C68.1559 58.0604 67.9713 57.8567 68.5527 57.6437H101.38C101.694 60.2458 101.454 98.147 101.454 104.944C101.454 107.305 100.845 108.648 98.8699 109.092V109.065ZM41.3734 57.6437C41.8441 57.9586 41.5857 57.6437 41.7149 58.2456C41.7296 58.5356 41.7296 58.8261 41.7149 59.1161C41.6595 67.589 41.9549 106.62 41.6318 109.25C40.709 109.639 11.7116 109.75 11.0286 109.065C8.94286 108.648 8.41681 107.148 8.4445 104.685C8.4445 97.7488 8.20455 60.2921 8.49064 57.6159L41.3734 57.6437ZM41.5303 29.3173H68.2943V54.9398H67.4268H42.4532H41.5303V29.3173ZM71.0076 29.3173H103.411C106.022 29.3173 107.259 30.7897 107.259 33.364V50.9302C107.259 53.6341 105.912 55.0046 103.198 55.0046H71.063L71.0076 29.3173ZM38.8908 54.9676H14.3049C10.8994 54.9676 5.12207 55.8288 3.35011 53.5508C2.05806 51.8932 2.63948 44.5686 2.63948 41.9943C2.63948 28.2709 0.71063 29.2895 14.5079 29.2895H38.8908V54.9676ZM50.5009 26.6412C50.7131 21.4741 59.1576 21.4741 59.4253 26.6412H50.5009ZM58.0779 20.6592C58.447 17.0385 62.1386 12.4919 63.8552 10.6306C66.55 7.69519 70.3155 4.96349 74.6162 6.45435C80.9011 8.63972 87.389 17.0849 85.414 26.6412H62.1663L62.0094 25.354L62.1386 25.2522L63.9844 24.3262C65.3041 23.7428 68.5989 22.1223 67.8421 20.3073C66.9192 18.2331 64.5104 21.0389 64.4828 21.0667C63.3162 21.7837 62.0548 22.3323 60.7358 22.6964C59.9856 21.8413 59.0725 21.1455 58.0502 20.65L58.0779 20.6592ZM24.4844 26.5393C22.5094 17.1404 29.0251 8.61194 35.3008 6.42657C40.1829 4.75051 43.9852 8.5286 46.0156 10.6584C48.2582 13.0197 51.0546 16.4552 51.876 20.7889C50.0302 21.4463 50.104 22.0204 48.9227 22.7335C47.6013 22.2552 46.3357 21.6342 45.1481 20.8815C44.539 20.3907 44.4098 19.8629 43.6714 19.6499C41.8257 19.1498 40.7366 21.5667 44.4098 23.5854C45.3327 24.1132 47.3077 24.7984 47.9445 25.317L47.7876 26.6319L24.4844 26.5393ZM82.8299 8.9453C83.1991 8.5749 86.1524 7.24145 88.0535 5.84319C97.2825 -0.8981 93.7478 4.98201 94.4123 9.01938C95.3352 14.9273 102.958 13.7512 102.801 16.9274C102.645 20.1036 94.5692 25.8448 88.2104 26.5023C88.7254 23.0106 88.3897 19.4457 87.2321 16.1125C85.6725 11.7326 83.9097 10.6862 82.8299 8.899V8.9453ZM12.1084 13.3623C19.0024 9.9176 12.7452 1.62988 16.9905 2.86147C19.0763 3.49115 21.9003 6.00987 24.4567 7.49147L26.967 8.79714C26.967 8.74158 27.0501 8.84344 27.0962 8.899C26.7548 9.44534 26.0995 10.1028 25.7027 10.6584C21.845 15.7421 21.2266 20.1036 21.6881 26.4282C17.5304 25.9 13.6253 24.1359 10.4749 21.363C9.68118 20.7148 6.85712 18.2979 7.12476 16.4552C7.30934 15.0384 10.8994 13.9642 12.1084 13.3623ZM12.7452 6.22285C12.7452 10.9177 12.6344 9.92686 7.76156 12.3622C3.83002 14.3068 3.27628 17.1126 5.91576 20.5759C8.21378 23.5946 9.82884 24.3632 12.5698 26.1319L13.2066 26.6319C10.9825 26.6319 5.75887 26.3171 4.20841 26.8171C2.24264 27.4838 0 29.5303 0 31.9935V52.2359C0 56.8011 5.46355 57.6159 5.80502 57.7919V102.916C5.80502 106.138 5.49123 107.324 6.88481 109.398C7.4312 110.211 8.17173 110.875 9.03894 111.328C9.90616 111.78 10.8725 112.008 11.85 111.991H98.0762C99.2297 112.008 100.364 111.694 101.345 111.085C102.326 110.476 103.113 109.598 103.614 108.555C104.592 106.611 104.167 102.934 104.167 100.221V59.9772C104.167 56.9307 103.826 57.9863 105.939 57.3011C107.785 56.6714 110 54.6527 110 52.2081V31.9935C110 29.5303 107.813 27.5857 105.958 26.9097C104.269 26.2986 99.1006 26.669 96.8026 26.669L98.15 25.743C100.448 24.4138 102.464 22.6458 104.084 20.5388C105.515 18.6868 106.382 16.3718 104.85 14.1865C103.798 12.64 100.919 11.7974 99.1837 10.9362C95.3536 9.0842 98.5469 4.89867 96.8857 1.87991C96.5352 1.32295 96.0543 0.860486 95.4848 0.532833C94.9154 0.20518 94.2747 0.0222929 93.6186 0.00012207C90.0839 0.00012207 82.2947 7.40813 80.2181 6.48213C79.5536 6.13951 76.6004 3.07445 71.3491 3.25039C67.2053 3.43559 63.486 7.13959 61.2711 9.39904L58.6593 12.8067C57.5518 14.6587 55.5953 17.872 55.4107 20.0018H54.4878C53.9753 18.0161 53.1762 16.1162 52.116 14.3624C49.3473 9.7324 44.299 3.64857 38.7063 3.25039C34.9039 2.99111 32.7167 4.38011 29.948 6.24137C28.9697 6.92661 28.176 6.24137 27.0409 5.72281C23.7738 4.40789 16.3353 -3.38904 13.1697 1.7873C12.1915 3.38929 12.7452 4.17639 12.7452 6.22285Z" fill="#463050"/>
<path fill-rule="evenodd" clip-rule="evenodd" d="M98.8699 109.065C100.845 108.666 101.454 107.277 101.454 104.916C101.454 98.1192 101.694 60.2179 101.38 57.6158H68.5528C68.1282 59.1623 68.3959 106.277 68.3959 109.194C72.8811 109.194 96.4981 109.481 98.8515 109.037L98.8699 109.065Z" fill="#EB5877"/>
<path fill-rule="evenodd" clip-rule="evenodd" d="M11.0748 109.065C13.0036 109.435 38.9093 109.222 41.5303 109.222C41.5303 106.305 41.798 59.2179 41.3735 57.6437H8.51834C8.23224 60.3198 8.51834 97.7766 8.4722 104.712C8.4722 107.176 8.97056 108.676 11.0563 109.092L11.0748 109.065Z" fill="#EB5877"/>
<path d="M65.4703 57.8566H44.4651V109.148H65.4703V57.8566Z" fill="white"/>
<path fill-rule="evenodd" clip-rule="evenodd" d="M38.8909 54.9676V29.2895H14.5079C0.710638 29.2895 2.63949 28.2709 2.63949 41.9942C2.63949 44.5685 2.05807 51.8932 3.35012 53.5508C5.12208 55.8287 10.8994 54.9676 14.3049 54.9676H38.8909Z" fill="#EB5877"/>
<path fill-rule="evenodd" clip-rule="evenodd" d="M71.063 54.9677H103.254C105.967 54.9677 107.314 53.5972 107.314 50.8932V33.3361C107.314 30.7618 106.078 29.2894 103.466 29.2894H71.063V54.9677Z" fill="#EB5877"/>
<path fill-rule="evenodd" clip-rule="evenodd" d="M41.558 54.9399L42.4532 54.9677H67.4729L68.3405 54.9399V29.3173H41.558V54.9399Z" fill="white"/>
<path fill-rule="evenodd" clip-rule="evenodd" d="M57.8194 20.7242C58.8721 21.2297 59.8134 21.9412 60.5881 22.8169C61.9303 22.4396 63.2155 21.882 64.4089 21.1594C64.4089 21.1594 66.9284 18.2702 67.8144 20.3815C68.5712 22.2335 65.2395 23.8818 63.8921 24.4745L61.9817 25.4005C61.9404 25.4367 61.8973 25.4707 61.8525 25.5023L62.0094 26.8173H85.6909C87.6751 17.0942 81.0672 8.48238 74.6715 6.25997C70.2878 4.74132 66.4485 7.51933 63.6798 10.5103C61.9263 12.4086 58.1424 16.9924 57.7917 20.6964L57.8194 20.7242Z" fill="#F08084"/>
<path fill-rule="evenodd" clip-rule="evenodd" d="M24.8075 26.7614L48.5443 26.854L48.7012 25.5206C47.5337 24.8672 46.3322 24.2768 45.1019 23.7519C41.4104 21.6962 42.4901 19.233 44.3452 19.7423C45.1019 19.9553 45.2681 20.4924 45.8495 21.0017C47.0644 21.7521 48.3542 22.3728 49.698 22.8537C50.907 22.1314 50.7962 21.5387 52.7066 20.872C51.876 16.4643 49.015 12.964 46.7355 10.5564C44.6682 8.38951 40.8012 4.53734 35.8268 6.25044C29.4312 8.50063 22.7956 17.1865 24.8075 26.7614Z" fill="#F08084"/>
<path fill-rule="evenodd" clip-rule="evenodd" d="M21.9557 26.6503C21.4758 20.1683 22.1218 15.742 26.0441 10.5842C26.4502 10.0194 27.1239 9.35265 27.4654 8.78779C27.4192 8.74149 27.3639 8.63037 27.3362 8.68593L24.7798 7.32471C22.1495 5.85238 19.2978 3.28737 17.1751 2.63917C12.8467 1.38907 19.2147 9.83416 12.2007 13.3344C10.964 13.9549 7.30936 15.0475 7.12479 16.4921C6.85715 18.3441 9.72735 20.8257 10.5395 21.4925C13.7502 24.3108 17.7244 26.1063 21.9557 26.6503Z" fill="#F08084"/>
<path fill-rule="evenodd" clip-rule="evenodd" d="M82.83 8.89892C83.9097 10.6861 85.6725 11.7325 87.2322 16.1124C88.3822 19.4312 88.7178 22.9792 88.2104 26.4558C94.5692 25.7984 102.645 20.085 102.801 16.881C102.958 13.6771 95.3629 14.8809 94.4123 8.973C93.7478 4.93565 97.3102 -0.944427 88.0536 5.79683C86.1524 7.19508 83.1991 8.57482 82.83 8.89892Z" fill="#F08084"/>
<path fill-rule="evenodd" clip-rule="evenodd" d="M50.5009 26.6411H59.4252C59.1576 21.474 50.7131 21.474 50.5009 26.6411Z" fill="#FEF2F0"/>
<path fill-rule="evenodd" clip-rule="evenodd" d="M44.4651 57.8568H65.461V109.139H44.4651V57.8568ZM44.299 109.268L65.6179 109.343L65.7194 57.6623L44.4005 57.579L44.299 109.268Z" fill="#BDA6AF"/>
<path fill-rule="evenodd" clip-rule="evenodd" d="M11.0748 109.065C11.7577 109.75 40.7366 109.639 41.678 109.25C42.001 106.62 41.678 67.5797 41.761 59.116C41.7758 58.8261 41.7758 58.5355 41.761 58.2456C41.6318 57.6159 41.8902 57.9585 41.4196 57.6437C41.8441 59.1901 41.5765 106.305 41.5765 109.222C38.937 109.222 13.0313 109.435 11.1209 109.065H11.0748Z" fill="#974263"/>
<path fill-rule="evenodd" clip-rule="evenodd" d="M98.8699 109.065C96.4981 109.509 72.8811 109.222 68.4143 109.222C68.4143 106.305 68.1467 59.2179 68.5712 57.6437C67.9898 57.8567 68.2021 58.0604 68.1744 58.8753L68.2574 109.25C69.1803 109.639 98.1777 109.75 98.8884 109.065H98.8699Z" fill="#974263"/>
</svg>
