<svg width="253" height="64" viewBox="0 0 253 64" fill="none" xmlns="http://www.w3.org/2000/svg">
<path d="M64.1826 31.5139C63.1452 31.5139 62.0171 31.3477 60.7982 31.0154C59.6052 30.7086 58.3214 30.2357 56.9468 29.5966L49.9445 26.2222C48.0772 28.2673 46.2099 29.2898 44.3426 29.2898C43.7461 29.2898 43.2274 29.1109 42.7865 28.753C42.3715 28.4207 42.1641 27.9733 42.1641 27.4109C42.1641 26.2605 42.8643 25.3658 44.2648 24.7267C44.9391 24.42 45.7431 24.2666 46.6767 24.2666C47.6363 24.2666 48.5829 24.42 49.5166 24.7267L49.6333 24.7651C49.7889 24.4839 49.9445 24.1899 50.1001 23.8831C50.2557 23.5508 50.4113 23.2185 50.5669 22.8862C51.2671 21.2245 51.9415 19.5629 52.5898 17.9013C53.2641 16.2396 53.9514 14.5908 54.6516 12.9547C55.4815 10.9863 56.4282 9.24799 57.4915 7.73974C58.5807 6.2315 59.7348 4.92775 60.9538 3.82852C62.069 2.85711 63.4954 2.01351 65.233 1.29773C66.9966 0.58195 68.6175 0.22406 70.0957 0.22406C72.1965 0.22406 73.2468 1.01653 73.2468 2.60147C73.2468 3.29169 73.0134 3.93077 72.5466 4.51874C72.0279 5.1067 71.4444 5.40068 70.796 5.40068C70.3032 5.40068 69.8753 5.22173 69.5122 4.86384C69.1751 4.50595 69.0454 4.07137 69.1232 3.5601C69.2788 2.38418 69.9272 1.79622 71.0683 1.79622C71.6389 1.79622 72.0538 2.03907 72.3132 2.52478C72.2354 1.65562 71.5092 1.22104 70.1347 1.22104C69.7975 1.22104 69.4733 1.25938 69.1621 1.33607C66.1277 2.17967 63.3268 4.56986 60.7593 8.50665C60.1109 9.47807 59.1772 11.0247 57.9583 13.1464C56.7394 15.2682 55.2222 17.9652 53.4068 21.2373C52.5509 22.7711 51.6821 24.0876 50.8003 25.1869C51.8896 25.6215 52.9788 26.0688 54.0681 26.529C55.1574 26.9891 56.2596 27.4365 57.3748 27.871C59.9423 28.868 62.069 29.3665 63.7547 29.3665C64.2734 29.3665 64.7662 29.3154 65.233 29.2131C65.7258 29.1364 66.1926 29.0214 66.6335 28.868C67.6968 28.4846 68.6045 27.871 69.3566 27.0274C70.0828 26.2094 70.4459 25.3658 70.4459 24.4967C70.4459 23.1929 69.5641 22.2471 67.8005 21.6591C67.5152 21.5568 67.204 21.4802 66.8669 21.429C66.5557 21.3779 66.2185 21.3523 65.8554 21.3523C64.6624 21.3523 63.4305 21.608 62.1597 22.1192C61.3558 22.4516 60.5907 22.8862 59.8645 23.423C59.1383 23.9343 58.4511 24.5478 57.8027 25.2636C57.699 25.3658 57.5952 25.4169 57.4915 25.4169C57.284 25.4169 57.1803 25.3403 57.1803 25.1869C57.1803 25.1357 57.1932 25.0974 57.2192 25.0718C58.4381 23.3335 59.9293 22.1065 61.6929 21.3907C62.7822 20.9305 63.9752 20.7005 65.2719 20.7005C66.2315 20.7005 67.1003 20.8283 67.8783 21.0839C70.3421 21.8508 71.574 23.3591 71.574 25.6087C71.574 26.8357 71.1461 27.9733 70.2903 29.0214C69.8494 29.5582 69.3436 30.0056 68.7731 30.3635C68.2025 30.7469 67.5542 31.0281 66.828 31.2071C66.3871 31.3093 65.9462 31.386 65.5053 31.4372C65.0644 31.4883 64.6235 31.5139 64.1826 31.5139ZM44.5371 28.5229C46.0932 28.5229 47.5585 27.6154 48.933 25.8004C48.4403 25.6215 47.9734 25.4809 47.5325 25.3786C47.0917 25.2763 46.6637 25.2124 46.2488 25.1869C44.3037 25.2124 43.2663 25.9026 43.1366 27.2575V27.3726C43.1366 27.6793 43.2533 27.935 43.4867 28.1395C43.7461 28.3951 44.0962 28.5229 44.5371 28.5229Z" fill="#532611"/>
<path d="M75.8812 27.4492C74.2214 27.4492 73.3915 26.6823 73.3915 25.1485C73.3915 24.6117 73.5471 23.8959 73.8583 23.0012C74.1695 22.0809 74.6104 20.9944 75.181 19.7418L77.3206 15.102C77.554 14.5652 78.0597 14.2968 78.8378 14.2968H81.1719C80.2642 14.9614 79.4343 16.0351 78.6822 17.5178C78.3969 18.0802 78.0468 18.7832 77.6318 19.6268C77.2428 20.4448 76.7889 21.3907 76.2702 22.4644C75.7775 23.4613 75.5311 24.3561 75.5311 25.1485C75.5311 25.9666 75.8164 26.3756 76.3869 26.3756C77.0094 26.3756 77.7485 25.8899 78.6044 24.9185C80.0308 23.2824 81.9499 20.0103 84.3619 15.102C84.6472 14.5652 85.1399 14.2968 85.8401 14.2968H87.9409C87.085 14.987 86.1903 16.2524 85.2566 18.093C83.9599 20.6749 83.1818 22.6433 82.9225 23.9982C82.8966 24.1515 82.8706 24.2921 82.8447 24.42C82.8447 24.5478 82.8447 24.6756 82.8447 24.8034C82.8447 25.8004 83.1948 26.2989 83.895 26.2989C84.6471 26.2989 85.5289 25.5703 86.5404 24.1132L87.1239 24.3816C85.7234 26.4267 84.3359 27.4492 82.9614 27.4492C81.509 27.4492 80.7829 26.5417 80.7829 24.7267C80.7829 24.0365 80.9126 23.308 81.1719 22.541C79.2527 25.8132 77.4892 27.4492 75.8812 27.4492Z" fill="#532611"/>
<path d="M94.0494 12.6479C93.1676 12.6479 92.7267 12.2261 92.7267 11.3826C92.7267 10.539 93.1417 10.1172 93.9716 10.1172C94.8534 10.1172 95.2943 10.539 95.2943 11.3826C95.2943 12.2261 94.8793 12.6479 94.0494 12.6479ZM88.7587 27.4876C88.0066 27.4876 87.6306 27.1169 87.6306 26.3756C87.6306 25.9154 87.7862 25.2891 88.0974 24.4967C88.7717 22.8606 89.4071 21.3523 90.0036 19.9719C90.6001 18.5915 91.1577 17.3389 91.6764 16.2141C91.7542 16.0862 91.7931 15.9456 91.7931 15.7923C91.7931 15.4344 91.6245 15.0509 91.2874 14.6419L93.427 14.6036C94.1531 14.6036 94.5162 14.7825 94.5162 15.1404C94.5162 15.2426 94.4903 15.3577 94.4384 15.4855C94.3866 15.5878 94.3217 15.7411 94.2439 15.9456L90.6649 24.1132C90.3018 24.9568 90.1203 25.6726 90.1203 26.2605C90.1203 26.8741 90.3148 27.2831 90.7038 27.4876H88.7587Z" fill="#532611"/>
<path d="M97.7402 27.641C96.4435 27.641 95.445 27.2575 94.7448 26.4906C94.1742 25.8515 93.8889 25.0846 93.8889 24.1899C93.8889 22.8862 94.3039 22.2343 95.1338 22.2343C95.445 22.2343 95.7303 22.3493 95.9896 22.5794C96.249 22.835 96.3787 23.129 96.3787 23.4613C96.3787 23.6658 96.3268 23.832 96.223 23.9598C95.8859 24.3688 95.7173 24.8162 95.7173 25.3019C95.7173 25.7876 95.8729 26.1838 96.1841 26.4906C96.5213 26.8229 96.9492 26.9891 97.4679 26.9891C98.0125 26.9891 98.5053 26.8102 98.9462 26.4523C99.5427 25.9154 99.8409 25.1741 99.8409 24.2282C99.8409 23.4102 99.6205 22.4899 99.1796 21.4674C98.9981 21.2117 98.7776 20.8794 98.5183 20.4704C98.2849 20.0614 98.0125 19.5757 97.7013 19.0133C97.5198 18.7065 97.3901 18.3997 97.3123 18.093C97.2604 17.7607 97.2345 17.4411 97.2345 17.1344C97.2345 16.0607 97.6365 15.2043 98.4405 14.5652C99.2704 13.9006 100.334 13.5682 101.63 13.5682C101.994 13.5682 102.344 13.6066 102.681 13.6833C103.044 13.76 103.368 13.9006 103.653 14.1051C104.25 14.5397 104.548 15.0765 104.548 15.7156C104.548 15.9968 104.496 16.2524 104.392 16.4825C104.159 17.1471 103.653 17.4795 102.875 17.4795C102.019 17.4795 101.592 17.0449 101.592 16.1757C101.592 15.9201 101.63 15.7028 101.708 15.5238C101.786 15.2682 102.071 15.0126 102.564 14.7569C102.383 14.4246 102.045 14.2584 101.553 14.2584C101.112 14.2584 100.788 14.3607 100.58 14.5652C99.9576 15.102 99.6464 15.7795 99.6464 16.5975C99.6464 17.1599 99.802 17.7734 100.113 18.4381C100.165 18.5403 100.671 19.3456 101.63 20.8538C102.279 21.8764 102.603 22.7328 102.603 23.423C102.603 24.5222 102.084 25.4936 101.047 26.3372C100.01 27.2064 98.9073 27.641 97.7402 27.641Z" fill="#532611"/>
<path d="M113.613 27.5643C113.043 27.5643 112.576 27.3981 112.213 27.0658C111.694 26.6312 111.435 25.9027 111.435 24.8801C111.435 24.2155 111.551 23.4613 111.785 22.6177C110.903 24.0749 109.982 25.2636 109.023 26.1838C108.037 27.0786 107.155 27.5259 106.377 27.5259C105.703 27.5259 105.171 27.232 104.782 26.644C104.367 26.0816 104.16 25.3019 104.16 24.3049C104.16 21.8764 105.262 19.3712 107.467 16.7892C107.83 16.3547 108.245 15.9584 108.712 15.6005C109.178 15.2426 109.684 14.9231 110.229 14.6419C111.344 14.0795 112.42 13.7983 113.458 13.7983C114.728 13.7983 115.74 14.2073 116.492 15.0254C116.673 15.2043 116.764 15.4088 116.764 15.6389C116.764 16.0735 116.531 16.2396 116.064 16.1374C115.805 15.2171 115.195 14.7569 114.236 14.7569C113.146 14.7569 111.863 15.5111 110.384 17.0193C109.866 17.5817 109.373 18.1697 108.906 18.7832C108.439 19.3712 107.998 19.9975 107.583 20.6621C106.468 22.5027 105.911 23.9982 105.911 25.1485C105.911 26.0177 106.248 26.4523 106.922 26.4523C107.674 26.4523 108.543 25.8899 109.528 24.7651C110.073 24.1515 110.631 23.3974 111.201 22.5027C111.772 21.608 112.368 20.5726 112.991 19.3967C113.25 18.911 113.484 18.5148 113.691 18.208C113.898 17.9013 114.067 17.6712 114.197 17.5178C114.612 17.1088 115.104 16.9171 115.675 16.9426L116.453 17.0577C116.79 17.1344 117.075 17.1471 117.309 17.096C117.075 17.3261 116.79 17.6968 116.453 18.208C116.142 18.6937 115.779 19.3328 115.364 20.1253C114.923 20.9689 114.56 21.7358 114.275 22.426C113.989 23.1162 113.795 23.7297 113.691 24.2666C113.639 24.5222 113.6 24.7651 113.574 24.9951C113.548 25.1997 113.535 25.3914 113.535 25.5703C113.535 26.235 113.717 26.5673 114.08 26.5673C114.599 26.5673 115.312 26.0049 116.22 24.8801L116.375 24.6884L116.92 25.0335L116.764 25.2636C115.701 26.7974 114.651 27.5643 113.613 27.5643Z" fill="#532611"/>
<path d="M123.549 8.16154C123.289 8.23823 123.16 8.19989 123.16 8.04651C123.16 7.91869 123.263 7.81643 123.471 7.73974C125.26 7.15178 126.246 6.03977 126.427 4.4037C126.09 4.65934 125.727 4.78715 125.338 4.78715C124.923 4.78715 124.573 4.63377 124.288 4.32701C124.08 4.07137 123.977 3.80296 123.977 3.52176C123.977 2.95936 124.197 2.48643 124.638 2.10298C125.027 1.79622 125.442 1.64284 125.883 1.64284C126.946 1.64284 127.478 2.33305 127.478 3.71349C127.478 5.78413 126.168 7.26682 123.549 8.16154Z" fill="#532611"/>
<path d="M132.881 27.641C131.585 27.641 130.586 27.2575 129.886 26.4906C129.315 25.8515 129.03 25.0846 129.03 24.1899C129.03 22.8862 129.445 22.2343 130.275 22.2343C130.586 22.2343 130.871 22.3493 131.131 22.5794C131.39 22.835 131.52 23.129 131.52 23.4613C131.52 23.6658 131.468 23.832 131.364 23.9598C131.027 24.3688 130.858 24.8162 130.858 25.3019C130.858 25.7876 131.014 26.1838 131.325 26.4906C131.662 26.8229 132.09 26.9891 132.609 26.9891C133.154 26.9891 133.646 26.8102 134.087 26.4523C134.684 25.9154 134.982 25.1741 134.982 24.2282C134.982 23.4102 134.762 22.4899 134.321 21.4674C134.139 21.2117 133.919 20.8794 133.659 20.4704C133.426 20.0614 133.154 19.5757 132.842 19.0133C132.661 18.7065 132.531 18.3997 132.453 18.093C132.401 17.7607 132.376 17.4411 132.376 17.1344C132.376 16.0607 132.778 15.2043 133.581 14.5652C134.411 13.9006 135.475 13.5682 136.771 13.5682C137.135 13.5682 137.485 13.6066 137.822 13.6833C138.185 13.76 138.509 13.9006 138.794 14.1051C139.391 14.5397 139.689 15.0765 139.689 15.7156C139.689 15.9968 139.637 16.2524 139.534 16.4825C139.3 17.1471 138.794 17.4795 138.016 17.4795C137.16 17.4795 136.733 17.0449 136.733 16.1757C136.733 15.9201 136.771 15.7028 136.849 15.5238C136.927 15.2682 137.212 15.0126 137.705 14.7569C137.524 14.4246 137.186 14.2584 136.694 14.2584C136.253 14.2584 135.929 14.3607 135.721 14.5652C135.099 15.102 134.787 15.7795 134.787 16.5975C134.787 17.1599 134.943 17.7734 135.254 18.4381C135.306 18.5403 135.812 19.3456 136.771 20.8538C137.42 21.8764 137.744 22.7328 137.744 23.423C137.744 24.5222 137.225 25.4936 136.188 26.3372C135.151 27.2064 134.048 27.641 132.881 27.641Z" fill="#532611"/>
<path d="M156.622 30.3635C154.054 30.3635 152.109 29.5966 150.787 28.0628C149.645 26.759 149.075 24.9824 149.075 22.7328C149.075 21.2245 149.321 19.6907 149.814 18.1313C150.307 16.5464 151.02 14.9614 151.954 13.3765C150.423 12.8652 149.114 12.0344 148.024 10.8841C146.909 9.68258 146.352 8.36605 146.352 6.93449C146.352 5.27286 147.117 4.02025 148.647 3.17665C149.866 2.512 151.292 2.17967 152.926 2.17967C155.779 2.17967 158.269 3.08718 160.395 4.90219C164.26 2.52478 168.111 1.33607 171.949 1.33607C175.476 1.33607 177.24 2.25636 177.24 4.09694C177.24 5.88639 175.801 7.81644 172.922 9.88708C168.876 12.8013 163.806 14.2584 157.711 14.2584C157.296 14.2584 156.881 14.2457 156.466 14.2201C156.077 14.1945 155.701 14.1562 155.338 14.1051C153.186 17.505 152.109 20.6493 152.109 23.538C152.109 25.1997 152.472 26.5417 153.198 27.5643C154.132 28.8936 155.546 29.5582 157.439 29.5582C160.888 29.5582 164.299 27.5643 167.67 23.5764C169.382 21.5313 170.238 19.7418 170.238 18.208C170.238 16.802 169.498 16.099 168.02 16.099C166.386 16.099 164.337 16.981 161.874 18.7449C159.695 20.3298 158.087 21.9275 157.05 23.538C156.972 23.6658 156.881 23.7297 156.777 23.7297C156.596 23.7297 156.505 23.6019 156.505 23.3463C156.505 23.244 156.518 23.1801 156.544 23.1546C157.348 21.3907 158.891 19.6524 161.173 17.9396C163.508 16.2013 165.608 15.3321 167.476 15.3321C168.72 15.3321 169.667 15.7156 170.315 16.4825C170.912 17.2238 171.21 18.1185 171.21 19.1667C171.21 20.0358 171.042 20.9305 170.704 21.8508C170.367 22.7711 169.823 23.6786 169.071 24.5733C167.644 26.3628 165.79 27.7688 163.508 28.7913C161.173 29.8394 158.878 30.3635 156.622 30.3635ZM157.789 13.2998C159.112 13.2998 160.447 13.1848 161.796 12.9547C165.505 12.2645 169.006 10.7435 172.299 8.39161C174.504 6.83224 175.606 5.26008 175.606 3.67514C175.606 2.62703 174.724 2.10298 172.961 2.10298C169.537 2.10298 165.906 3.62401 162.068 6.66608C162.302 6.9984 162.522 7.33073 162.729 7.66305C162.937 7.99538 163.131 8.34049 163.313 8.69838C163.417 8.87732 163.365 8.99236 163.157 9.04349H163.041C162.833 9.04349 162.691 8.9668 162.613 8.81341C162.483 8.63447 162.315 8.41718 162.107 8.16154C161.9 7.88034 161.653 7.57358 161.368 7.24126C159.267 9.03071 157.465 11.0119 155.961 13.1848C156.583 13.2615 157.192 13.2998 157.789 13.2998ZM152.576 12.3795C154.366 9.66979 156.674 7.36907 159.501 5.47737C157.27 3.73905 154.923 2.86989 152.459 2.86989C151.24 2.86989 150.19 3.16387 149.308 3.75183C148.271 4.46761 147.752 5.50293 147.752 6.8578C147.752 9.36303 149.36 11.2036 152.576 12.3795Z" fill="#532611"/>
<path d="M182.832 27.5643C182.261 27.5643 181.794 27.3981 181.431 27.0658C180.912 26.6312 180.653 25.9027 180.653 24.8801C180.653 24.2155 180.77 23.4613 181.003 22.6177C180.121 24.0749 179.201 25.2636 178.241 26.1838C177.256 27.0786 176.374 27.5259 175.596 27.5259C174.921 27.5259 174.39 27.232 174.001 26.644C173.586 26.0816 173.378 25.3019 173.378 24.3049C173.378 21.8764 174.481 19.3712 176.685 16.7892C177.048 16.3547 177.463 15.9584 177.93 15.6005C178.397 15.2426 178.902 14.9231 179.447 14.6419C180.562 14.0795 181.639 13.7983 182.676 13.7983C183.947 13.7983 184.958 14.2073 185.71 15.0254C185.892 15.2043 185.983 15.4088 185.983 15.6389C185.983 16.0735 185.749 16.2396 185.282 16.1374C185.023 15.2171 184.414 14.7569 183.454 14.7569C182.365 14.7569 181.081 15.5111 179.603 17.0193C179.084 17.5817 178.591 18.1697 178.124 18.7832C177.658 19.3712 177.217 19.9975 176.802 20.6621C175.686 22.5027 175.129 23.9982 175.129 25.1485C175.129 26.0177 175.466 26.4523 176.14 26.4523C176.892 26.4523 177.761 25.8899 178.747 24.7651C179.291 24.1515 179.849 23.3974 180.42 22.5027C180.99 21.608 181.587 20.5726 182.209 19.3967C182.468 18.911 182.702 18.5148 182.909 18.208C183.117 17.9013 183.285 17.6712 183.415 17.5178C183.83 17.1088 184.323 16.9171 184.893 16.9426L185.671 17.0577C186.009 17.1344 186.294 17.1471 186.527 17.096C186.294 17.3261 186.009 17.6968 185.671 18.208C185.36 18.6937 184.997 19.3328 184.582 20.1253C184.141 20.9689 183.778 21.7358 183.493 22.426C183.208 23.1162 183.013 23.7297 182.909 24.2666C182.857 24.5222 182.819 24.7651 182.793 24.9951C182.767 25.1997 182.754 25.3914 182.754 25.5703C182.754 26.235 182.935 26.5673 183.298 26.5673C183.817 26.5673 184.53 26.0049 185.438 24.8801L185.594 24.6884L186.138 25.0335L185.983 25.2636C184.919 26.7974 183.869 27.5643 182.832 27.5643Z" fill="#532611"/>
<path d="M186.154 27.756C187.035 25.7621 188.293 22.9117 189.927 19.205C191.587 15.4727 193.636 10.8968 196.074 5.47737C196.1 5.40068 196.113 5.32399 196.113 5.2473C196.139 5.17061 196.152 5.09392 196.152 5.01723C196.152 4.65934 195.996 4.27588 195.685 3.86686H197.785C198.512 3.86686 198.875 4.03303 198.875 4.36536C198.875 4.5443 198.797 4.81272 198.641 5.17061L191.794 20.6621C192.287 19.9719 193.338 18.9238 194.946 17.5178C196.502 16.1629 197.617 15.3832 198.291 15.1787C198.576 15.102 198.849 15.0637 199.108 15.0637C200.094 15.0637 200.586 15.575 200.586 16.5975C200.586 16.8532 200.522 17.1727 200.392 17.5562C200.236 18.0419 199.886 18.502 199.341 18.9366C198.797 19.3967 198.291 19.6268 197.824 19.6268C197.435 19.6268 197.15 19.4606 196.968 19.1283C197.254 18.6937 197.396 18.3742 197.396 18.1697C197.396 17.9907 197.306 17.8373 197.124 17.7095C196.968 17.6328 196.787 17.5945 196.579 17.5945C196.087 17.5945 195.62 17.8629 195.179 18.3997C194.557 19.1667 194.245 20.2403 194.245 21.6208C194.245 22.7711 194.531 23.8192 195.101 24.7651C195.775 25.8899 196.631 26.4523 197.669 26.4523C198.706 26.4523 199.705 25.7876 200.664 24.4583L201.209 24.9185C199.834 26.8102 198.317 27.756 196.657 27.756C196.553 27.756 196.437 27.756 196.307 27.756C196.177 27.756 196.048 27.7432 195.918 27.7177C195.192 27.641 194.492 27.232 193.817 26.4906C192.962 25.5703 192.534 24.4072 192.534 23.0012C192.534 21.9531 192.832 20.9305 193.428 19.9336C191.691 21.5696 190.161 23.9087 188.838 26.9508C188.682 27.3342 188.228 27.5259 187.476 27.5259C187.191 27.5259 186.75 27.6026 186.154 27.756Z" fill="#532611"/>
<path d="M205.187 27.641C204.175 27.641 203.307 27.3214 202.58 26.6823C202.191 26.3244 201.906 25.9154 201.725 25.4553C201.569 24.9696 201.491 24.42 201.491 23.8064C201.491 21.4546 202.477 19.1155 204.448 16.7892C206.107 14.8208 207.832 13.8367 209.622 13.8367C210.218 13.8367 210.724 13.99 211.139 14.2968C211.58 14.6547 211.8 15.1148 211.8 15.6772C211.8 17.0832 210.854 18.4892 208.96 19.8952C208.364 20.3298 207.573 20.7132 206.587 21.0456C205.498 21.4035 204.707 21.5824 204.214 21.5824C203.851 22.4516 203.67 23.3719 203.67 24.3433C203.67 26.0049 204.292 26.8357 205.537 26.8357C207.171 26.8357 208.701 25.7876 210.127 23.6914L210.283 23.4613L210.944 23.7297L210.828 23.9598C210.179 25.238 209.362 26.1711 208.377 26.759C207.391 27.347 206.328 27.641 205.187 27.641ZM204.448 20.9305C204.889 20.9305 205.498 20.7899 206.276 20.5087C206.717 20.3298 207.132 20.1381 207.521 19.9336C207.936 19.7291 208.299 19.499 208.61 19.2433C210.037 18.0674 210.75 16.8276 210.75 15.5238C210.75 14.9615 210.542 14.6803 210.127 14.6803C209.401 14.6803 208.299 15.5622 206.821 17.3261C206.069 18.2208 205.278 19.4223 204.448 20.9305Z" fill="#532611"/>
<path d="M79.3819 35.1856L78.7116 35.103V34.7802H82.703L82.7792 36.0115H82.3602L82.1546 35.1631L80.0065 35.1256V37.348L81.53 37.3254L81.6595 36.7173H82.0099V38.3766H81.6595L81.53 37.7384L80.0065 37.7084V39.9683L81.2024 40.0359V40.3587H78.7573V40.0359L79.3819 39.9683V35.1856Z" fill="#532611"/>
<path d="M85.241 40.4413C84.6519 40.4413 84.1974 40.2436 83.8775 39.8482C83.5627 39.4478 83.4052 38.9172 83.4052 38.2565C83.4052 37.831 83.489 37.4531 83.6566 37.1227C83.8242 36.7924 84.0552 36.5371 84.3498 36.3569C84.6494 36.1717 84.9845 36.0791 85.3552 36.0791C85.8072 36.0791 86.1576 36.2067 86.4064 36.462C86.6603 36.7173 86.7974 37.0852 86.8177 37.5657C86.8177 37.876 86.8025 38.0963 86.772 38.2264H84.0603C84.0603 38.752 84.1796 39.1825 84.4183 39.5178C84.6621 39.8482 85.0023 40.0134 85.439 40.0134C85.6523 40.0134 85.8707 39.9758 86.0941 39.9007C86.3175 39.8257 86.4902 39.7356 86.6121 39.6305L86.7339 39.9083C86.5867 40.0584 86.3709 40.1861 86.0865 40.2912C85.8072 40.3913 85.5254 40.4413 85.241 40.4413ZM86.1322 37.8735C86.1474 37.7684 86.155 37.6583 86.155 37.5432C86.15 37.2128 86.0687 36.95 85.9113 36.7548C85.7589 36.5596 85.5228 36.462 85.2029 36.462C84.5072 36.462 84.1289 36.9325 84.0679 37.8735H86.1322Z" fill="#532611"/>
<path d="M88.1282 34.6826L87.4807 34.615V34.3372L88.5928 34.2096H88.6004L88.7452 34.3072V39.9833L89.4612 40.0359V40.3587H87.4579V40.0359L88.1282 39.9758V34.6826Z" fill="#532611"/>
<path d="M90.9016 35.4034C90.6274 35.4034 90.4903 35.2607 90.4903 34.9754C90.4903 34.8302 90.5335 34.7126 90.6198 34.6225C90.7061 34.5274 90.8229 34.4799 90.9702 34.4799C91.1225 34.4799 91.2317 34.5224 91.2977 34.6075C91.3637 34.6876 91.3967 34.7877 91.3967 34.9078C91.3967 35.063 91.3536 35.1856 91.2672 35.2757C91.186 35.3608 91.0667 35.4034 90.9092 35.4034H90.9016ZM90.6579 36.6873L90.0637 36.5596V36.2217L91.1073 36.1016H91.1225L91.2749 36.2217V39.9833L91.9376 40.0359V40.3587H89.9875V40.0359L90.6579 39.9758V36.6873Z" fill="#532611"/>
<path d="M92.3962 38.3015C92.3962 37.8961 92.475 37.5257 92.6324 37.1903C92.7949 36.8499 93.0336 36.5796 93.3484 36.3794C93.6683 36.1792 94.0568 36.0791 94.5138 36.0791C94.7119 36.0791 94.9048 36.1041 95.0927 36.1542C95.2806 36.1992 95.4431 36.2493 95.5802 36.3043L95.5498 37.378H95.1689L95.0089 36.6572C94.9785 36.5071 94.7601 36.432 94.3539 36.432C93.9578 36.432 93.6404 36.5821 93.4017 36.8825C93.1681 37.1828 93.0513 37.5932 93.0513 38.1138C93.0513 38.7345 93.1783 39.205 93.4322 39.5253C93.6861 39.8457 94.0162 40.0059 94.4224 40.0059C94.6357 40.0059 94.8414 39.9708 95.0394 39.9007C95.2425 39.8307 95.4101 39.7506 95.5422 39.6605L95.664 39.9083C95.5168 40.0534 95.3136 40.1785 95.0546 40.2837C94.7957 40.3888 94.5392 40.4413 94.2853 40.4413C93.8841 40.4413 93.5414 40.3487 93.257 40.1635C92.9726 39.9733 92.7568 39.7181 92.6095 39.3977C92.4673 39.0723 92.3962 38.707 92.3962 38.3015Z" fill="#532611"/>
<path d="M97.2468 35.4034C96.9726 35.4034 96.8355 35.2607 96.8355 34.9754C96.8355 34.8302 96.8786 34.7126 96.965 34.6225C97.0513 34.5274 97.1681 34.4799 97.3154 34.4799C97.4677 34.4799 97.5769 34.5224 97.6429 34.6075C97.7089 34.6876 97.7419 34.7877 97.7419 34.9078C97.7419 35.063 97.6987 35.1856 97.6124 35.2757C97.5312 35.3608 97.4118 35.4034 97.2544 35.4034H97.2468ZM97.003 36.6873L96.4089 36.5596V36.2217L97.4525 36.1016H97.4677L97.62 36.2217V39.9833L98.2827 40.0359V40.3587H96.3327V40.0359L97.003 39.9758V36.6873Z" fill="#532611"/>
<path d="M100.501 40.4413C100.201 40.4413 99.9246 40.3663 99.6707 40.2161C99.4168 40.0609 99.2137 39.8282 99.0614 39.5178C98.909 39.2075 98.8328 38.8271 98.8328 38.3766C98.8328 37.9461 98.9217 37.5582 99.0994 37.2128C99.2772 36.8624 99.5285 36.5871 99.8535 36.3869C100.184 36.1817 100.567 36.0791 101.004 36.0791C101.283 36.0791 101.552 36.1091 101.811 36.1692V34.6826L101.019 34.6075V34.3372L102.268 34.2096H102.283L102.428 34.3147V40.0209H102.893V40.3137C102.867 40.3187 102.781 40.3387 102.634 40.3738C102.487 40.4088 102.329 40.4263 102.162 40.4263C102.045 40.4263 101.961 40.4063 101.91 40.3663C101.864 40.3262 101.842 40.2386 101.842 40.1035V39.8407C101.684 40.0109 101.491 40.1535 101.263 40.2686C101.039 40.3838 100.785 40.4413 100.501 40.4413ZM100.752 39.9683C100.971 39.9683 101.176 39.9183 101.369 39.8182C101.567 39.713 101.715 39.5979 101.811 39.4728V36.7098C101.771 36.6397 101.664 36.5796 101.491 36.5296C101.324 36.4795 101.143 36.4545 100.95 36.4545C100.514 36.4545 100.163 36.6097 99.8992 36.92C99.6352 37.2253 99.5032 37.6908 99.5032 38.3165C99.5032 38.8771 99.6199 39.2926 99.8535 39.5629C100.087 39.8332 100.387 39.9683 100.752 39.9683Z" fill="#532611"/>
<path d="M103.58 39.2626C103.58 38.777 103.823 38.4266 104.311 38.2114C104.798 37.9912 105.405 37.8735 106.131 37.8585V37.6258C106.131 37.3705 106.103 37.1703 106.048 37.0251C105.997 36.875 105.905 36.7673 105.773 36.7023C105.641 36.6322 105.456 36.5972 105.217 36.5972C104.958 36.5972 104.722 36.6372 104.509 36.7173C104.301 36.7924 104.098 36.885 103.9 36.9951L103.732 36.6647C103.788 36.6147 103.905 36.5446 104.082 36.4545C104.26 36.3644 104.463 36.2843 104.692 36.2142C104.92 36.1442 105.141 36.1091 105.354 36.1091C105.7 36.1091 105.971 36.1567 106.169 36.2518C106.373 36.3469 106.517 36.4995 106.604 36.7098C106.695 36.92 106.741 37.2028 106.741 37.5582V40.0359H107.213V40.3137C106.934 40.3888 106.698 40.4263 106.505 40.4263C106.383 40.4263 106.299 40.4063 106.253 40.3663C106.208 40.3312 106.185 40.2461 106.185 40.111V39.8332C106.002 39.9934 105.801 40.136 105.583 40.2611C105.37 40.3813 105.126 40.4413 104.852 40.4413C104.486 40.4413 104.181 40.3412 103.938 40.141C103.699 39.9408 103.58 39.648 103.58 39.2626ZM105.08 39.9984C105.222 39.9984 105.392 39.9533 105.591 39.8632C105.789 39.7731 105.969 39.6655 106.131 39.5404V38.2114C105.517 38.2164 105.05 38.3065 104.73 38.4817C104.415 38.6569 104.258 38.8922 104.258 39.1875C104.258 39.4728 104.331 39.6805 104.478 39.8106C104.626 39.9358 104.826 39.9984 105.08 39.9984Z" fill="#532611"/>
<path d="M109.45 40.4413C109.15 40.4413 108.873 40.3663 108.619 40.2161C108.366 40.0609 108.162 39.8282 108.01 39.5178C107.858 39.2075 107.782 38.8271 107.782 38.3766C107.782 37.9461 107.87 37.5582 108.048 37.2128C108.226 36.8624 108.477 36.5871 108.802 36.3869C109.132 36.1817 109.516 36.0791 109.952 36.0791C110.232 36.0791 110.501 36.1091 110.76 36.1692V34.6826L109.968 34.6075V34.3372L111.217 34.2096H111.232L111.377 34.3147V40.0209H111.842V40.3137C111.816 40.3187 111.73 40.3387 111.583 40.3738C111.435 40.4088 111.278 40.4263 111.11 40.4263C110.993 40.4263 110.91 40.4063 110.859 40.3663C110.813 40.3262 110.79 40.2386 110.79 40.1035V39.8407C110.633 40.0109 110.44 40.1535 110.211 40.2686C109.988 40.3838 109.734 40.4413 109.45 40.4413ZM109.701 39.9683C109.919 39.9683 110.125 39.9183 110.318 39.8182C110.516 39.713 110.663 39.5979 110.76 39.4728V36.7098C110.719 36.6397 110.613 36.5796 110.44 36.5296C110.272 36.4795 110.092 36.4545 109.899 36.4545C109.462 36.4545 109.112 36.6097 108.848 36.92C108.584 37.2253 108.452 37.6908 108.452 38.3165C108.452 38.8771 108.569 39.2926 108.802 39.5629C109.036 39.8332 109.335 39.9683 109.701 39.9683Z" fill="#532611"/>
<path d="M116.141 40.4413C115.552 40.4413 115.098 40.2436 114.778 39.8482C114.463 39.4478 114.305 38.9172 114.305 38.2565C114.305 37.831 114.389 37.4531 114.557 37.1227C114.724 36.7924 114.955 36.5371 115.25 36.3569C115.55 36.1717 115.885 36.0791 116.255 36.0791C116.707 36.0791 117.058 36.2067 117.307 36.462C117.561 36.7173 117.698 37.0852 117.718 37.5657C117.718 37.876 117.703 38.0963 117.672 38.2264H114.961C114.961 38.752 115.08 39.1825 115.319 39.5178C115.562 39.8482 115.903 40.0134 116.339 40.0134C116.553 40.0134 116.771 39.9758 116.994 39.9007C117.218 39.8257 117.39 39.7356 117.512 39.6305L117.634 39.9083C117.487 40.0584 117.271 40.1861 116.987 40.2912C116.707 40.3913 116.426 40.4413 116.141 40.4413ZM117.032 37.8735C117.048 37.7684 117.055 37.6583 117.055 37.5432C117.05 37.2128 116.969 36.95 116.812 36.7548C116.659 36.5596 116.423 36.462 116.103 36.462C115.407 36.462 115.029 36.9325 114.968 37.8735H117.032Z" fill="#532611"/>
<path d="M118.884 36.6873L118.297 36.5596V36.2217L119.265 36.1016H119.287L119.432 36.2217V36.5521L119.424 36.7398C119.612 36.5796 119.861 36.432 120.171 36.2968C120.481 36.1617 120.768 36.0941 121.032 36.0941C121.357 36.0941 121.606 36.1567 121.778 36.2818C121.956 36.4019 122.078 36.5896 122.144 36.8449C122.215 37.0952 122.25 37.4331 122.25 37.8585V39.9833L122.822 40.0359V40.3587H121.123V40.0359L121.633 39.9833V37.851C121.633 37.5357 121.611 37.2879 121.565 37.1077C121.524 36.9275 121.441 36.7924 121.314 36.7023C121.192 36.6072 121.011 36.5596 120.773 36.5596C120.57 36.5596 120.349 36.6097 120.11 36.7098C119.876 36.8099 119.673 36.9275 119.501 37.0627V39.9758L120.057 40.0359V40.3587H118.373V40.0359L118.884 39.9758V36.6873Z" fill="#532611"/>
<path d="M125.104 38.3015C125.104 37.8961 125.183 37.5257 125.34 37.1903C125.503 36.8499 125.741 36.5796 126.056 36.3794C126.376 36.1792 126.765 36.0791 127.222 36.0791C127.42 36.0791 127.613 36.1041 127.801 36.1542C127.988 36.1992 128.151 36.2493 128.288 36.3043L128.258 37.378H127.877L127.717 36.6572C127.686 36.5071 127.468 36.432 127.062 36.432C126.666 36.432 126.348 36.5821 126.11 36.8825C125.876 37.1828 125.759 37.5932 125.759 38.1138C125.759 38.7345 125.886 39.205 126.14 39.5253C126.394 39.8457 126.724 40.0059 127.13 40.0059C127.344 40.0059 127.549 39.9708 127.747 39.9007C127.95 39.8307 128.118 39.7506 128.25 39.6605L128.372 39.9083C128.225 40.0534 128.021 40.1785 127.762 40.2837C127.503 40.3888 127.247 40.4413 126.993 40.4413C126.592 40.4413 126.249 40.3487 125.965 40.1635C125.68 39.9733 125.465 39.7181 125.317 39.3977C125.175 39.0723 125.104 38.707 125.104 38.3015Z" fill="#532611"/>
<path d="M129.109 39.2626C129.109 38.777 129.353 38.4266 129.84 38.2114C130.328 37.9912 130.935 37.8735 131.661 37.8585V37.6258C131.661 37.3705 131.633 37.1703 131.577 37.0251C131.526 36.875 131.435 36.7673 131.303 36.7023C131.171 36.6322 130.985 36.5972 130.747 36.5972C130.488 36.5972 130.252 36.6372 130.038 36.7173C129.83 36.7924 129.627 36.885 129.429 36.9951L129.261 36.6647C129.317 36.6147 129.434 36.5446 129.612 36.4545C129.79 36.3644 129.993 36.2843 130.221 36.2142C130.45 36.1442 130.671 36.1091 130.884 36.1091C131.229 36.1091 131.501 36.1567 131.699 36.2518C131.902 36.3469 132.047 36.4995 132.133 36.7098C132.225 36.92 132.27 37.2028 132.27 37.5582V40.0359H132.742V40.3137C132.463 40.3888 132.227 40.4263 132.034 40.4263C131.912 40.4263 131.828 40.4063 131.783 40.3663C131.737 40.3312 131.714 40.2461 131.714 40.111V39.8332C131.531 39.9934 131.331 40.136 131.112 40.2611C130.899 40.3813 130.655 40.4413 130.381 40.4413C130.016 40.4413 129.711 40.3412 129.467 40.141C129.228 39.9408 129.109 39.648 129.109 39.2626ZM130.61 39.9984C130.752 39.9984 130.922 39.9533 131.12 39.8632C131.318 39.7731 131.498 39.6655 131.661 39.5404V38.2114C131.046 38.2164 130.579 38.3065 130.259 38.4817C129.944 38.6569 129.787 38.8922 129.787 39.1875C129.787 39.4728 129.861 39.6805 130.008 39.8106C130.155 39.9358 130.356 39.9984 130.61 39.9984Z" fill="#532611"/>
<path d="M134.979 40.4413C134.68 40.4413 134.403 40.3663 134.149 40.2161C133.895 40.0609 133.692 39.8282 133.54 39.5178C133.387 39.2075 133.311 38.8271 133.311 38.3766C133.311 37.9461 133.4 37.5582 133.578 37.2128C133.755 36.8624 134.007 36.5871 134.332 36.3869C134.662 36.1817 135.045 36.0791 135.482 36.0791C135.761 36.0791 136.03 36.1091 136.289 36.1692V34.6826L135.497 34.6075V34.3372L136.746 34.2096H136.762L136.906 34.3147V40.0209H137.371V40.3137C137.346 40.3187 137.259 40.3387 137.112 40.3738C136.965 40.4088 136.807 40.4263 136.64 40.4263C136.523 40.4263 136.439 40.4063 136.388 40.3663C136.343 40.3262 136.32 40.2386 136.32 40.1035V39.8407C136.162 40.0109 135.969 40.1535 135.741 40.2686C135.518 40.3838 135.264 40.4413 134.979 40.4413ZM135.231 39.9683C135.449 39.9683 135.655 39.9183 135.848 39.8182C136.046 39.713 136.193 39.5979 136.289 39.4728V36.7098C136.249 36.6397 136.142 36.5796 135.969 36.5296C135.802 36.4795 135.622 36.4545 135.429 36.4545C134.992 36.4545 134.642 36.6097 134.377 36.92C134.113 37.2253 133.981 37.6908 133.981 38.3165C133.981 38.8771 134.098 39.2926 134.332 39.5629C134.565 39.8332 134.865 39.9683 135.231 39.9683Z" fill="#532611"/>
<path d="M138.058 39.2626C138.058 38.777 138.302 38.4266 138.789 38.2114C139.277 37.9912 139.883 37.8735 140.61 37.8585V37.6258C140.61 37.3705 140.582 37.1703 140.526 37.0251C140.475 36.875 140.384 36.7673 140.252 36.7023C140.12 36.6322 139.934 36.5972 139.696 36.5972C139.437 36.5972 139.2 36.6372 138.987 36.7173C138.779 36.7924 138.576 36.885 138.378 36.9951L138.21 36.6647C138.266 36.6147 138.383 36.5446 138.561 36.4545C138.738 36.3644 138.941 36.2843 139.17 36.2142C139.398 36.1442 139.619 36.1091 139.833 36.1091C140.178 36.1091 140.45 36.1567 140.648 36.2518C140.851 36.3469 140.995 36.4995 141.082 36.7098C141.173 36.92 141.219 37.2028 141.219 37.5582V40.0359H141.691V40.3137C141.412 40.3888 141.176 40.4263 140.983 40.4263C140.861 40.4263 140.777 40.4063 140.731 40.3663C140.686 40.3312 140.663 40.2461 140.663 40.111V39.8332C140.48 39.9934 140.279 40.136 140.061 40.2611C139.848 40.3813 139.604 40.4413 139.33 40.4413C138.964 40.4413 138.66 40.3412 138.416 40.141C138.177 39.9408 138.058 39.648 138.058 39.2626ZM139.558 39.9984C139.701 39.9984 139.871 39.9533 140.069 39.8632C140.267 39.7731 140.447 39.6655 140.61 39.5404V38.2114C139.995 38.2164 139.528 38.3065 139.208 38.4817C138.893 38.6569 138.736 38.8922 138.736 39.1875C138.736 39.4728 138.809 39.6805 138.957 39.8106C139.104 39.9358 139.304 39.9984 139.558 39.9984Z" fill="#532611"/>
<path d="M144.052 40.0359L144.54 39.9758V36.6873L143.953 36.5596V36.2217L144.92 36.1016L145.088 36.2217V36.5521L145.08 36.7398C145.268 36.5796 145.515 36.432 145.819 36.2968C146.124 36.1617 146.401 36.0941 146.65 36.0941C146.924 36.0941 147.142 36.1392 147.305 36.2293C147.472 36.3194 147.599 36.4595 147.686 36.6497C147.843 36.5196 148.071 36.3944 148.371 36.2743C148.676 36.1542 148.955 36.0941 149.209 36.0941C149.529 36.0941 149.775 36.1542 149.948 36.2743C150.126 36.3944 150.25 36.5796 150.321 36.8299C150.392 37.0802 150.428 37.418 150.428 37.8435V39.9758L151.007 40.0359V40.3587H149.3V40.0359L149.818 39.9758V37.866C149.818 37.5507 149.796 37.3004 149.75 37.1152C149.704 36.93 149.615 36.7899 149.483 36.6948C149.351 36.5997 149.158 36.5521 148.904 36.5521C148.716 36.5521 148.518 36.5947 148.31 36.6797C148.107 36.7598 147.932 36.8524 147.785 36.9575C147.835 37.1878 147.861 37.4881 147.861 37.8585V39.9758L148.44 40.0359V40.3587H146.695V40.0359L147.244 39.9758V37.851C147.244 37.5307 147.223 37.2804 147.183 37.1002C147.147 36.92 147.069 36.7849 146.947 36.6948C146.825 36.6047 146.645 36.5596 146.406 36.5596C146.208 36.5596 145.992 36.6097 145.758 36.7098C145.53 36.8049 145.329 36.92 145.157 37.0552V39.9758L145.697 40.0359V40.3587H144.052V40.0359Z" fill="#532611"/>
<path d="M151.558 38.249C151.558 37.8135 151.649 37.4306 151.832 37.1002C152.02 36.7698 152.264 36.5171 152.563 36.3419C152.868 36.1667 153.185 36.0791 153.516 36.0791C154.155 36.0791 154.628 36.2843 154.932 36.6948C155.242 37.1052 155.397 37.6308 155.397 38.2715C155.397 38.707 155.303 39.0899 155.115 39.4202C154.932 39.7506 154.689 40.0034 154.384 40.1786C154.084 40.3537 153.769 40.4413 153.439 40.4413C152.8 40.4413 152.325 40.2361 152.015 39.8257C151.71 39.4152 151.558 38.8896 151.558 38.249ZM153.477 40.0509C153.868 40.0509 154.171 39.9033 154.384 39.6079C154.597 39.3126 154.704 38.8821 154.704 38.3165C154.704 37.7759 154.605 37.333 154.407 36.9876C154.209 36.6422 153.901 36.4695 153.485 36.4695C153.094 36.4695 152.789 36.6172 152.571 36.9125C152.358 37.2078 152.251 37.6383 152.251 38.2039C152.251 38.7495 152.35 39.195 152.548 39.5404C152.751 39.8807 153.061 40.0509 153.477 40.0509Z" fill="#532611"/>
<path d="M156.119 40.0434L156.728 39.9984V36.6873L156.141 36.5596V36.2217L157.109 36.1016H157.124L157.269 36.2217V36.3419L157.253 36.9125H157.269C157.279 36.9025 157.345 36.8274 157.467 36.6873C157.594 36.5421 157.779 36.4044 158.023 36.2743C158.272 36.1442 158.52 36.0791 158.769 36.0791C158.851 36.0791 158.927 36.0891 158.998 36.1091V36.7698C158.978 36.7548 158.932 36.7398 158.861 36.7248C158.795 36.7098 158.724 36.7023 158.647 36.7023C158.358 36.7023 158.112 36.7448 157.909 36.8299C157.705 36.915 157.518 37.0201 157.345 37.1453V39.9908L158.358 40.0509V40.3587H156.119V40.0434Z" fill="#532611"/>
<path d="M161.193 40.4413C160.893 40.4413 160.617 40.3663 160.363 40.2161C160.109 40.0609 159.906 39.8282 159.753 39.5178C159.601 39.2075 159.525 38.8271 159.525 38.3766C159.525 37.9461 159.614 37.5582 159.792 37.2128C159.969 36.8624 160.221 36.5871 160.546 36.3869C160.876 36.1817 161.259 36.0791 161.696 36.0791C161.975 36.0791 162.244 36.1091 162.503 36.1692V34.6826L161.711 34.6075V34.3372L162.96 34.2096H162.975L163.12 34.3147V40.0209H163.585V40.3137C163.559 40.3187 163.473 40.3387 163.326 40.3738C163.179 40.4088 163.021 40.4263 162.854 40.4263C162.737 40.4263 162.653 40.4063 162.602 40.3663C162.557 40.3262 162.534 40.2386 162.534 40.1035V39.8407C162.376 40.0109 162.183 40.1535 161.955 40.2686C161.731 40.3838 161.477 40.4413 161.193 40.4413ZM161.444 39.9683C161.663 39.9683 161.868 39.9183 162.061 39.8182C162.259 39.713 162.407 39.5979 162.503 39.4728V36.7098C162.463 36.6397 162.356 36.5796 162.183 36.5296C162.016 36.4795 161.835 36.4545 161.642 36.4545C161.206 36.4545 160.855 36.6097 160.591 36.92C160.327 37.2253 160.195 37.6908 160.195 38.3165C160.195 38.8771 160.312 39.2926 160.546 39.5629C160.779 39.8332 161.079 39.9683 161.444 39.9683Z" fill="#532611"/>
<path d="M165.117 35.4034C164.843 35.4034 164.706 35.2607 164.706 34.9754C164.706 34.8302 164.749 34.7126 164.835 34.6225C164.922 34.5274 165.038 34.4799 165.186 34.4799C165.338 34.4799 165.447 34.5224 165.513 34.6075C165.579 34.6876 165.612 34.7877 165.612 34.9078C165.612 35.063 165.569 35.1856 165.483 35.2757C165.402 35.3608 165.282 35.4034 165.125 35.4034H165.117ZM164.873 36.6873L164.279 36.5596V36.2217L165.323 36.1016H165.338L165.49 36.2217V39.9833L166.153 40.0359V40.3587H164.203V40.0359L164.873 39.9758V36.6873Z" fill="#532611"/>
<path d="M168.371 40.4413C168.072 40.4413 167.795 40.3663 167.541 40.2161C167.287 40.0609 167.084 39.8282 166.932 39.5178C166.779 39.2075 166.703 38.8271 166.703 38.3766C166.703 37.9461 166.792 37.5582 166.97 37.2128C167.148 36.8624 167.399 36.5871 167.724 36.3869C168.054 36.1817 168.437 36.0791 168.874 36.0791C169.153 36.0791 169.423 36.1091 169.682 36.1692V34.6826L168.889 34.6075V34.3372L170.139 34.2096H170.154L170.299 34.3147V40.0209H170.763V40.3137C170.738 40.3187 170.651 40.3387 170.504 40.3738C170.357 40.4088 170.199 40.4263 170.032 40.4263C169.915 40.4263 169.831 40.4063 169.781 40.3663C169.735 40.3262 169.712 40.2386 169.712 40.1035V39.8407C169.555 40.0109 169.362 40.1535 169.133 40.2686C168.91 40.3838 168.656 40.4413 168.371 40.4413ZM168.623 39.9683C168.841 39.9683 169.047 39.9183 169.24 39.8182C169.438 39.713 169.585 39.5979 169.682 39.4728V36.7098C169.641 36.6397 169.534 36.5796 169.362 36.5296C169.194 36.4795 169.014 36.4545 168.821 36.4545C168.384 36.4545 168.034 36.6097 167.77 36.92C167.506 37.2253 167.374 37.6908 167.374 38.3165C167.374 38.8771 167.49 39.2926 167.724 39.5629C167.958 39.8332 168.257 39.9683 168.623 39.9683Z" fill="#532611"/>
<path d="M171.45 39.2626C171.45 38.777 171.694 38.4266 172.181 38.2114C172.669 37.9912 173.276 37.8735 174.002 37.8585V37.6258C174.002 37.3705 173.974 37.1703 173.918 37.0251C173.867 36.875 173.776 36.7673 173.644 36.7023C173.512 36.6322 173.326 36.5972 173.088 36.5972C172.829 36.5972 172.593 36.6372 172.379 36.7173C172.171 36.7924 171.968 36.885 171.77 36.9951L171.602 36.6647C171.658 36.6147 171.775 36.5446 171.953 36.4545C172.13 36.3644 172.334 36.2843 172.562 36.2142C172.791 36.1442 173.012 36.1091 173.225 36.1091C173.57 36.1091 173.842 36.1567 174.04 36.2518C174.243 36.3469 174.388 36.4995 174.474 36.7098C174.565 36.92 174.611 37.2028 174.611 37.5582V40.0359H175.083V40.3137C174.804 40.3888 174.568 40.4263 174.375 40.4263C174.253 40.4263 174.169 40.4063 174.124 40.3663C174.078 40.3312 174.055 40.2461 174.055 40.111V39.8332C173.872 39.9934 173.672 40.136 173.453 40.2611C173.24 40.3813 172.996 40.4413 172.722 40.4413C172.356 40.4413 172.052 40.3412 171.808 40.141C171.569 39.9408 171.45 39.648 171.45 39.2626ZM172.951 39.9984C173.093 39.9984 173.263 39.9533 173.461 39.8632C173.659 39.7731 173.839 39.6655 174.002 39.5404V38.2114C173.387 38.2164 172.92 38.3065 172.6 38.4817C172.285 38.6569 172.128 38.8922 172.128 39.1875C172.128 39.4728 172.202 39.6805 172.349 39.8106C172.496 39.9358 172.697 39.9984 172.951 39.9984Z" fill="#532611"/>
<path fill-rule="evenodd" clip-rule="evenodd" d="M141.911 59.2596C143.203 62.8836 138.419 63.8814 136.801 60.9799C135.111 57.9408 137.198 55.2457 139.249 54.248C143.742 52.0403 152.125 55.4923 156.014 56.8742C167.307 60.8881 196.022 69.5696 206.669 58.7665C210.7 54.6609 212.568 49.6263 210.41 43.8577C209.366 41.0308 207.855 39.6488 205.3 38.4733C200.196 36.0937 191.92 37.7508 192.892 44.305C193.574 48.9668 198.228 48.5826 197.042 46.203C196.449 44.9644 191.244 44.2706 194.807 40.3713C199.739 34.9927 212.295 39.58 209.2 52.1034C206.177 64.1451 189.774 63.7667 179.518 62.3503C173.472 61.5246 168.219 59.7642 162.825 58.2103C156.423 56.3467 143.938 50.1366 137.713 53.967C130.914 58.1759 137.174 66.2152 141.922 62.6944C145.337 60.1771 140.695 56.2435 139.474 59.0761C140.34 59.5234 140.375 58.8353 141.922 59.2826L141.911 59.2596Z" fill="#532611"/>
<path fill-rule="evenodd" clip-rule="evenodd" d="M222.177 49.8212C224.193 49.1331 226.024 47.82 228.544 46.9943C235.658 44.6089 245.457 44.9931 249.63 50.5781C252.541 54.4773 250.922 60.7562 246.5 62.1382C239.517 64.3458 236.422 53.9269 243.044 54.9647C243.583 56.0657 243.08 57.3444 244.953 56.8628C246.138 53.6516 240.922 52.1321 238.799 55.068C236.677 58.0038 238.977 61.4845 240.993 62.6542C252.327 69.3173 261.611 46.3807 239.772 44.2132C234.555 43.6971 230.162 45.1823 225.846 47.3211L222.645 49.2478C222.248 49.6263 222.497 49.3854 222.177 49.8212Z" fill="#532611"/>
<path fill-rule="evenodd" clip-rule="evenodd" d="M175.333 59.3284C181.487 59.2596 186.952 57.1208 188.251 52.4474C190.479 44.305 180.586 42.9632 179.252 47.0344C178.86 48.273 179.216 49.8613 180.799 49.9015C183.141 49.9015 181.451 47.9003 182.459 46.8681C183.929 45.3142 187.095 48.1411 186.81 51.077C186.342 56.0428 179.868 58.0784 174.397 58.0784C167.81 58.0784 161.011 55.7847 155.367 53.9383C151.84 52.7284 139.954 49.2478 136.836 53.5943C140.832 52.2123 141.549 51.6619 146.552 52.4474C154.97 53.8294 161.805 59.3284 175.333 59.3284Z" fill="#532611"/>
<path fill-rule="evenodd" clip-rule="evenodd" d="M217.82 53.6344C221.347 52.5965 225.882 50.6297 228.977 53.4624C231.709 55.9453 230.127 60.9512 225.123 59.7699C224.531 57.3559 225.52 56.1459 222.426 56.943C219.409 63.09 232.379 64.1566 232.071 56.1287C231.964 53.1298 229.409 51.2318 226.208 51.0942C223.973 50.9909 220.28 51.7479 218.579 52.9578C217.933 53.405 218.253 53.1642 217.82 53.6459V53.6344Z" fill="#532611"/>
<path fill-rule="evenodd" clip-rule="evenodd" d="M200.771 48.0436C203.142 48.6629 202.389 46.7305 204.654 47.8028C208.43 49.523 207.855 59.2252 195.05 61.6049C194.22 61.7425 193.752 61.7769 192.963 61.8801L190.948 62.3962C205.804 62.637 210.771 51.874 206.669 47.0803C203.924 43.8348 199.775 45.2339 200.771 48.0436Z" fill="#532611"/>
<path fill-rule="evenodd" clip-rule="evenodd" d="M198.073 63.9501C204.725 63.5373 212.028 58.216 214.672 54.7353C218.27 50.0792 218.958 42.8026 215.466 40.9734C211.115 38.6797 208.596 43.3187 211.471 42.9746C212.372 42.8714 212.514 42.0399 213.593 41.7303C216.836 40.8014 218.525 48.3876 213.919 54.2881C209.313 60.1885 203.924 61.7081 198.073 63.9501Z" fill="#532611"/>
<path fill-rule="evenodd" clip-rule="evenodd" d="M174.794 60.4982C179.287 60.6358 182.382 60.848 186.016 59.0876C188.286 57.9809 192.857 54.0817 190.841 52.3213C188.031 49.8384 190.912 59.1564 177.598 60.0165C176.703 60.0853 175.582 60.0509 174.794 60.4982Z" fill="#532611"/>
<path fill-rule="evenodd" clip-rule="evenodd" d="M216.634 53.2617C218.757 52.1149 219.984 48.359 220.09 45.9105C220.197 43.0434 219.835 43.3588 219.189 42.9804C217.535 43.7717 218.863 45.8474 218.596 48.2558C218.306 50.4978 217.375 51.5013 216.652 53.2617H216.634Z" fill="#532611"/>
<path fill-rule="evenodd" clip-rule="evenodd" d="M111.084 59.2596C109.792 62.8836 114.576 63.8813 116.194 60.9799C117.884 57.9408 115.797 55.2457 113.752 54.248C109.253 52.0403 100.87 55.4923 96.9815 56.8742C85.7181 60.8881 56.9787 69.5696 46.3259 58.7665C42.2948 54.6608 40.3978 49.6263 42.5853 43.8577C43.6286 41.0308 45.1403 39.6488 47.6953 38.4733C52.8053 36.0593 61.0572 37.7279 60.1087 44.282C59.4211 48.9439 54.7734 48.5597 55.959 46.18C56.5519 44.9415 61.7508 44.2476 58.188 40.3484C53.2677 34.9698 40.712 39.5571 43.8064 52.0805C46.8298 64.1222 63.2387 63.7437 73.4884 62.3274C79.5351 61.5017 84.7874 59.7413 90.1819 58.1873C96.5902 56.3237 109.075 50.1137 115.299 53.9441C122.099 58.1529 115.839 66.1922 111.084 62.6714C107.67 60.1541 112.312 56.2205 113.533 59.0532C112.667 59.5005 112.632 58.8124 111.084 59.2596Z" fill="#532611"/>
<path fill-rule="evenodd" clip-rule="evenodd" d="M30.8239 49.8212C28.8083 49.1331 26.9765 47.82 24.4571 46.9943C17.3434 44.6089 7.55014 44.9931 3.37676 50.5781C0.454213 54.4946 2.07258 60.7735 6.51866 62.1554C13.496 64.363 16.5964 53.9441 9.96881 54.982C9.42935 56.0829 9.93324 57.3616 8.06589 56.88C6.88027 53.6688 12.0911 52.1493 14.2133 55.0852C16.3356 58.0211 14.0355 61.5017 12.0199 62.6715C0.667624 69.3173 -8.60985 46.3807 13.2293 44.2132C18.446 43.6971 22.8328 45.1823 27.1484 47.3211L30.3496 49.2478C30.7468 49.6263 30.4978 49.3854 30.8179 49.8212H30.8239Z" fill="#532611"/>
<path fill-rule="evenodd" clip-rule="evenodd" d="M77.6559 59.3284C71.5025 59.2596 66.0368 57.1208 64.7385 52.4474C62.5096 44.305 72.4036 42.9632 73.7374 47.0344C74.1286 48.273 73.773 49.8613 72.1902 49.9015C69.8189 49.9015 71.544 47.9003 70.5362 46.8681C69.0601 45.3142 65.8945 48.1411 66.1791 51.077C66.6474 56.0428 73.1268 58.0784 78.5925 58.0784C85.1786 58.0784 91.9782 55.7847 97.6276 53.9383C101.149 52.7284 113.041 49.2478 116.153 53.5943C112.163 52.2123 111.44 51.6619 106.443 52.4474C98.0189 53.8294 91.1838 59.3284 77.6559 59.3284Z" fill="#532611"/>
<path fill-rule="evenodd" clip-rule="evenodd" d="M35.1751 53.6344C31.6182 52.5965 27.1129 50.6297 24.0184 53.4624C21.2855 55.9453 22.8683 60.9512 27.8717 59.7699C28.4645 57.3559 27.4745 56.1459 30.569 56.943C33.5923 63.09 20.6038 64.1566 20.9239 56.1287C21.0306 53.1298 23.5856 51.2318 26.7928 51.0942C29.0217 50.9909 32.7209 51.7479 34.4163 52.9578C35.0625 53.405 34.7424 53.1642 35.1751 53.6459V53.6344Z" fill="#532611"/>
<path fill-rule="evenodd" clip-rule="evenodd" d="M52.2243 48.0436C49.8531 48.6629 50.6059 46.7305 48.3414 47.8028C44.5652 49.523 45.1402 59.2252 57.9449 61.6049C58.7749 61.7425 59.2432 61.7769 60.0316 61.8801L62.0472 62.3962C47.1913 62.637 42.2236 51.874 46.3258 47.0803C49.0943 43.8348 53.1965 45.2339 52.2243 48.0436Z" fill="#532611"/>
<path fill-rule="evenodd" clip-rule="evenodd" d="M54.9275 63.9501C48.2703 63.5373 40.9669 58.216 38.3289 54.7353C34.7305 50.0792 34.0429 42.8026 37.5345 40.9734C41.8917 38.6797 44.4052 43.3187 41.53 42.9746C40.629 42.8714 40.4867 42.0399 39.4078 41.7303C36.1711 40.8014 34.4756 48.3876 39.0817 54.2881C43.6879 60.1885 49.118 61.7081 54.9512 63.9501H54.9275Z" fill="#532611"/>
<path fill-rule="evenodd" clip-rule="evenodd" d="M78.2012 60.4982C73.7077 60.6358 70.6133 60.848 66.9794 59.0876C64.7089 57.9809 60.1443 54.0817 62.1539 52.3213C64.9638 49.8384 62.0828 59.1564 75.3972 60.0165C76.2983 60.0853 77.4128 60.0509 78.2012 60.4982Z" fill="#532611"/>
<path fill-rule="evenodd" clip-rule="evenodd" d="M36.3607 53.2617C34.2385 52.1149 33.0173 48.359 32.9046 45.9105C32.7979 43.0434 33.1595 43.3588 33.8057 42.9804C35.4596 43.7717 34.1317 45.8474 34.3985 48.2558C34.689 50.4978 35.6256 51.5013 36.3429 53.2617H36.3607Z" fill="#532611"/>
</svg>
