<svg width="129" height="172" viewBox="0 0 129 172" fill="none" xmlns="http://www.w3.org/2000/svg">
<path fill-rule="evenodd" clip-rule="evenodd" d="M60.1874 14.9908C64.9328 14.9908 67.2389 15.0093 71.9621 16.207C73.365 16.5509 74.5754 16.9686 75.8228 17.3679C79.399 18.6313 82.791 20.3643 85.9095 22.5213C87.8715 23.9247 89.7172 25.4837 91.4286 27.183L93.8309 29.7708C94.2011 30.2662 94.5194 30.5694 94.9414 31.1202C100.975 39.1313 103.607 47.1017 103.607 57.4862C103.607 66.3328 100.016 75.0833 95.0376 81.6822C94.6934 82.1591 94.4824 82.3291 94.1566 82.7469L92.3503 84.8208C89.5075 87.6193 87.2976 89.6711 83.7626 91.782C78.71 94.7875 72.7912 97.1461 66.5097 97.7376C56.9448 98.6138 51.622 97.2238 43.671 93.9705C41.3835 93.0389 38.3482 90.9465 36.3679 89.5971C35.9865 89.334 35.6219 89.0475 35.2759 88.7395L33.2178 86.9317C31.9334 85.9262 29.6458 83.3568 28.6094 81.9853C27.4731 80.5068 26.4143 78.9706 25.4371 77.3827C23.4328 73.9409 21.9261 70.2332 20.962 66.3698C17.9267 53.586 20.751 40.7098 28.9721 30.4363C33.7528 24.5721 40.0328 20.1088 47.1468 17.5194C50.5485 16.2662 55.5049 14.9723 60.1911 14.9723L60.1874 14.9908ZM52.6954 6.44733C46.2584 6.44733 46.7729 5.70795 41.439 4.54714C39.9322 4.20888 38.3719 4.18297 36.8547 4.47103C35.3375 4.75908 33.8956 5.35496 32.6182 6.22182C27.1843 9.7782 27.2583 11.013 25.9109 16.3032C24.9115 20.2218 21.9133 25.0721 19.3407 27.83C19.0705 28.1146 18.8595 28.2662 18.6004 28.5693C18.3887 28.8399 18.1574 29.0944 17.9082 29.3309C16.1795 30.8355 16.198 31.0056 13.8364 32.3956C11.1269 34.0111 9.02442 34.2773 7.17364 36.9021C5.50053 39.2422 4.56033 43.1424 4.56033 46.7172C4.56033 53.5269 14.2621 57.0869 10.0349 71.7894C8.90227 75.6711 7.90284 77.8966 9.42048 82.0223C9.8545 83.1928 10.3921 84.3223 11.027 85.3975C12.0264 87.0537 12.7556 88.2515 14.177 89.5269C19.1149 93.9964 22.6906 90.5546 30.0271 96.2219C31.3736 97.2998 32.5798 98.5418 33.6176 99.9188C36.5973 103.878 36.1347 107.701 40.7283 110.137C43.4563 111.582 49.216 113.56 52.3697 113.56C55.331 113.56 56.1157 113.675 58.6883 111.771C61.4755 109.715 62.3898 108.233 66.6799 107.109C80.0685 103.63 79.9352 113.161 91.3471 106.407C96.8995 103.117 97.7249 100.492 98.9946 94.9761C100.475 88.5066 103.525 84.5879 109.192 81.5639C110.303 80.9724 111.413 80.5546 112.402 79.9077C114.36 78.5953 115.937 77.1683 116.955 74.9058C118.394 71.6895 118.894 69.3901 118.894 65.7191C118.894 62.0481 116.07 59.4603 114.726 56.9871C109.596 47.4751 113.86 40.1516 113.86 33.1904C113.86 30.7949 112.576 27.7486 111.613 26.2292C107.171 19.1719 100.201 21.9852 92.1356 15.7265C89.0411 13.3494 88.0231 10.9723 86.1798 7.96304C84.6214 5.37524 83.7219 3.48984 80.5682 1.91128C77.5921 0.369686 75.1713 0 71.5586 0C68.2938 0 64.7995 2.43623 62.6082 3.69686C60.4169 4.95749 56.1712 6.45472 52.6954 6.45472V6.44733Z" fill="#EB5878"/>
<path fill-rule="evenodd" clip-rule="evenodd" d="M56.7301 75.5008L39.6511 58.6653L46.6397 51.6634L56.6339 61.4786L80.9346 37.4933L88.0231 44.4175L56.7301 75.5008ZM60.0134 92.6025C64.3554 92.6025 66.8539 92.6579 71.1958 91.4232C76.3225 89.9444 78.9173 88.6246 83.0853 85.8113L85.5246 83.8705C89.6555 80.2217 92.539 76.7725 94.9969 71.3492C98.0557 64.6752 98.9902 57.2246 97.6742 50.0033C96.3583 42.7821 92.8552 36.138 87.6382 30.9684C86.8312 30.1698 86.1575 29.6375 85.3543 28.8759C84.3364 27.9258 81.2604 25.9184 80.0907 25.2234C78.1541 24.1051 76.1272 23.1504 74.0312 22.3694C65.1919 19.2308 54.4759 19.6301 46.1955 23.6818C37.7226 27.8112 32.633 33.1754 28.4058 41.5081C26.9067 44.4175 25.8702 48.5063 25.4075 51.9111C25.2372 53.3011 25.2743 54.6874 25.1003 56.1144C25.0448 56.6098 25.2558 59.5784 25.3113 60.1292C26.233 66.9758 28.0578 72.266 32.1703 77.8187L33.6879 79.7041C37.2229 84.0405 41.9683 87.2938 47.058 89.6524C50.4782 91.2494 56.1823 92.6099 60.0134 92.6099V92.6025Z" fill="#EB5878"/>
<path fill-rule="evenodd" clip-rule="evenodd" d="M71.4068 126.917C71.4253 127.83 74.4014 134.144 74.9788 135.457L81.1271 149.505C82.1451 151.863 90.6735 170.924 90.9252 171.989H91.2509C91.3535 171.38 91.5083 170.782 91.7136 170.199C91.9246 169.575 92.0838 169.042 92.2873 168.351C92.6575 167.02 93.0277 165.937 93.3978 164.625C94.053 162.248 94.934 159.697 95.6187 157.301L100.038 142.514L105.302 144.872C105.954 145.213 106.435 145.364 107.086 145.671L120.997 152.196C122.285 152.71 127.104 155.183 128.007 155.39C127.704 154.1 112.209 119.039 110.307 114.495C109.936 113.582 109.366 112.555 109.137 111.604L100.312 117.501C96.345 119.852 92.1494 121.795 87.7899 123.301C86.0206 123.93 84.5437 124.348 82.6781 124.861C80.9865 125.32 79.0283 125.719 77.2405 126.063C76.3003 126.251 75.3009 126.403 74.4569 126.536C73.4582 126.749 72.4424 126.873 71.4216 126.906L71.4068 126.917Z" fill="#EB5878"/>
<path fill-rule="evenodd" clip-rule="evenodd" d="M0 155.412C0.740313 155.357 7.5697 152.026 8.73939 151.494C9.37606 151.209 9.81654 150.943 10.468 150.64C11.1195 150.337 11.5785 150.163 12.2559 149.841C12.9333 149.52 13.4108 149.25 14.003 149.002C14.5737 148.771 15.1321 148.51 15.6761 148.222C16.3276 147.9 16.7866 147.749 17.464 147.423L26.2996 143.294C26.9141 143.009 27.4101 142.592 28.1504 142.536C28.2281 143.39 29.8975 148.717 30.2825 149.93L36.3716 170.152C36.5862 170.891 36.775 171.387 36.9305 172C37.4302 171.657 37.334 171.468 37.582 170.891L55.7307 129.76C57.1521 126.603 57.4001 129.054 43.3009 125.593C42.4162 125.383 41.4168 125.116 40.5136 124.813L37.7115 123.882C32.9661 122.322 27.4138 119.353 23.2754 116.577C22.8534 116.292 22.6795 116.118 22.239 115.837L19.0297 113.556C18.6263 114.392 18.2894 115.323 17.8971 116.144L11.9227 129.231C11.4822 130.085 11.1824 130.906 10.7715 131.797C10.3607 132.688 9.9424 133.531 9.53893 134.444C9.13546 135.357 8.82823 136.096 8.40625 137.009L0 155.412Z" fill="#EB5878"/>
</svg>
