<svg width="111" height="101" viewBox="0 0 111 101" fill="none" xmlns="http://www.w3.org/2000/svg">
<path fill-rule="evenodd" clip-rule="evenodd" d="M3.46748 71.0436C4.50475 67.4028 9.06876 64.6334 13.5187 65.2557C17.9686 65.8781 21.682 70.1931 21.2878 73.3982L21.765 75.4727C22.497 75.768 23.315 75.768 24.047 75.4727C24.4619 72.2364 24.7316 70.5042 26.5365 68.3053C29.5342 64.623 35.7993 63.7102 40.4463 68.1497C42.7905 70.359 42.2926 72.1535 43.2054 75.4104C46.9189 76.9041 44.4502 72.9936 47.3545 69.0832C48.4212 67.5241 49.9358 66.3253 51.6982 65.6452C53.4606 64.9651 55.3879 64.8356 57.2254 65.2739C59.0629 65.7122 60.7242 66.6976 61.9899 68.1C63.2555 69.5024 64.0659 71.2558 64.314 73.1285C64.5837 75.3378 64.6978 76.2402 66.8657 75.3689C67.5503 73.0144 67.2495 68.5438 72.3217 66.0337C73.628 65.4495 75.04 65.1389 76.4708 65.1209C77.7774 65.1087 79.0725 65.3658 80.2754 65.8762C81.4782 66.3866 82.563 67.1393 83.4621 68.0874C86.0137 71.0955 85.1321 71.7697 86.1693 75.4104C86.5031 75.5995 86.8801 75.6989 87.2637 75.6989C87.6472 75.6989 88.0243 75.5995 88.358 75.4104C88.9492 73.2426 88.5032 69.83 92.2478 67.0294C93.5814 66.0364 95.153 65.412 96.8045 65.219C98.456 65.026 100.129 65.2712 101.656 65.93C108.917 68.9587 107.205 77.8687 107.205 84.8598C106.998 89.7452 104 93.386 99.5813 94.195C95.9093 94.8381 86.5946 94.3714 82.3522 94.3714H13.3423C7.80328 94.3714 4.1832 91.7782 3.05257 87.2869C2.39909 84.5486 2.52356 73.4396 3.46748 71.054V71.0436ZM2.814 66.8946C2.46132 61.2416 4.00686 57.5593 7.74105 55.6301C11.2989 53.8356 18.2383 54.5928 22.6259 54.5928H87.3933C96.4383 54.5928 108.139 52.3316 107.205 66.9465C101.189 60.6504 92.6108 61.7602 88.7314 66.7701C88.2543 67.3821 87.6941 68.326 87.1547 68.9069C86.4805 68.2327 86.0345 67.2991 85.3499 66.5004C79.7175 60.0073 68.7535 62.1544 65.8906 69.0313C64.594 67.7555 62.2394 62.4863 54.9785 62.4863C53.2881 62.4726 51.6148 62.8263 50.0746 63.523C48.5343 64.2196 47.1639 65.2426 46.0579 66.5212L44.0975 68.9587C43.2543 67.0858 41.8709 65.5074 40.1247 64.4259C38.1177 63.1373 35.7779 62.4631 33.3928 62.4863C26.2979 62.6108 24.4308 67.1954 22.8334 68.8343C21.3812 67.3095 21.9102 66.8427 19.1822 64.7786C13.9336 60.7852 7.1498 62.2581 2.78288 66.8531L2.814 66.8946ZM67.737 40.3099C67.1457 41.3471 61.0051 47.3943 59.6981 48.0996C55.7253 50.309 50.7983 49.3651 48.3711 46.5749C44.7821 42.5192 37.573 35.9949 33.1958 31.4932C32.8949 31.2028 33.0713 31.4414 32.812 31.0576C30.1565 28.9001 28.2894 22.9463 29.3578 18.0609C31.7643 7.00377 45.3111 3.36302 53.1736 10.2296C56.4307 13.0509 55.5179 9.82509 61.088 7.69872C75.2053 2.33614 86.4494 18.5276 78.2342 29.9374C74.9358 33.5923 71.431 37.0554 67.737 40.3099ZM26.3912 19.8242C26.3912 22.9982 26.3083 25.1142 27.636 28.0599C29.8661 32.9661 33.1231 35.3207 36.9714 39.2L47.1678 49.2613C49.5121 51.1077 50.8813 51.1076 51.7422 51.6989H19.8668C13.9128 51.6989 9.81559 51.201 5.90507 53.5452C4.14904 54.5921 2.6868 56.0668 1.65473 57.8316C0.622672 59.5964 0.0544194 61.5939 0.00298276 63.6376V85.0672C0.00298276 90.5958 3.1148 92.5977 4.27655 94.2676H0.770566C-0.0903719 95.5331 -0.183727 94.7759 0.262301 96.7674C0.671728 96.916 1.1027 96.9966 1.53815 97.006H108.751C109.113 96.9666 109.446 96.7875 109.678 96.5066C109.911 96.2258 110.025 95.8654 109.996 95.502C109.996 94.9211 109.581 94.7759 109.249 94.2676H105.722C106.842 92.6806 109.954 90.5958 109.954 85.0672V63.6376C109.907 61.6262 109.358 59.6584 108.358 57.9124C107.359 56.1664 105.939 54.6975 104.228 53.6385C100.39 51.201 96.2309 51.7196 90.1525 51.7196H58.277C59.8541 51.1482 61.3419 50.3554 62.6958 49.3651L79.7175 32.3853C80.8122 31.1623 81.6862 29.7584 82.3003 28.2363C85.91 20.6021 82.5907 9.35832 73.6494 5.56199C70.4347 4.13356 66.8726 3.67569 63.4012 4.24468C61.8282 4.51353 60.3018 5.00602 58.8683 5.7072C57.4921 6.38933 56.1888 7.20951 54.9785 8.15511C52.3438 6.36067 50.7153 4.95001 46.8255 4.29654C43.6365 3.70182 40.345 4.00578 37.3188 5.17445C34.2927 6.34312 31.6512 8.33043 29.6898 10.9142C27.729 13.4903 26.5806 16.5923 26.3912 19.8242Z" fill="black"/>
<path fill-rule="evenodd" clip-rule="evenodd" d="M2.81399 66.8737C7.18091 62.258 13.9647 60.7851 19.2133 64.7992C21.9413 66.8737 21.4123 67.3301 22.8645 68.8549C24.4619 67.216 26.329 62.6314 33.4239 62.5069C35.809 62.4838 38.1488 63.1579 40.1558 64.4466C41.902 65.5281 43.2854 67.1065 44.1286 68.9794L46.0891 66.5418C47.1896 65.2635 48.5542 64.239 50.0888 63.5388C51.6235 62.8387 53.2917 62.4795 54.9785 62.4862C62.2394 62.4862 64.5629 67.7554 65.8595 68.9586C68.7431 62.0816 79.6863 59.9345 85.3187 66.4277C86.0033 67.2264 86.4494 68.1599 87.1236 68.8342C87.663 68.2533 88.2231 67.3094 88.7003 66.6974C92.5797 61.6356 101.148 60.5776 107.174 66.8737C108.16 52.2589 96.4694 54.5201 87.3933 54.5201H22.6259C18.2382 54.5201 11.2989 53.8147 7.74104 55.5573C4.00685 57.4659 2.46132 61.1689 2.81399 66.8219V66.8737Z" fill="white"/>
<path fill-rule="evenodd" clip-rule="evenodd" d="M61.0881 7.67781C55.5179 9.80418 56.4307 13.03 53.1737 10.2294C45.3111 3.38359 31.7643 7.02434 29.3164 18.0814C28.2791 22.9669 30.1151 28.9311 32.7601 31.0782C33.0194 31.462 32.8431 31.2234 33.1439 31.5138C37.5316 36.0155 44.7406 42.5398 48.3296 46.6058C50.7568 49.396 55.6839 50.3399 59.6566 48.1306C61.0051 47.4045 67.1457 41.347 67.737 40.3097C71.431 37.0553 74.9358 33.5921 78.2342 29.9372C86.4494 18.5275 75.2054 2.33597 61.0881 7.67781Z" fill="#F08084"/>
<path fill-rule="evenodd" clip-rule="evenodd" d="M101.656 65.93C100.108 65.2514 98.4069 64.9994 96.7289 65.2C95.0508 65.4007 93.4571 66.0466 92.1129 67.071C88.3683 69.8716 88.8144 73.2945 88.2231 75.452C87.8894 75.641 87.5124 75.7404 87.1288 75.7404C86.7452 75.7404 86.3682 75.641 86.0345 75.452C84.9972 71.8112 85.8789 71.137 83.3272 68.129C82.4281 67.1922 81.3468 66.4494 80.1498 65.9463C78.9528 65.4433 77.6654 65.1906 76.3671 65.2039C74.9363 65.2219 73.5243 65.5326 72.218 66.1167C67.1457 68.5854 67.4465 73.0559 66.7619 75.452C64.594 76.3336 64.4799 75.452 64.2102 73.2115C63.9539 71.3639 63.15 69.6354 61.9021 68.249C60.6542 66.8626 59.0196 65.8818 57.2091 65.4331C55.3985 64.9843 53.495 65.0883 51.7441 65.7315C49.9932 66.3747 48.4751 67.5277 47.3856 69.0418C44.4502 72.9522 46.9189 76.8626 43.2365 75.369C42.3237 72.1328 42.8216 70.3383 40.4774 68.1082C35.8304 63.6688 29.5653 64.5816 26.5676 68.2638C24.7627 70.4628 24.493 72.195 24.0781 75.4312C23.3461 75.7265 22.5281 75.7265 21.7961 75.4312L21.3189 73.3567C21.7131 70.1516 18.0308 65.7952 13.5498 65.2143C9.06874 64.6334 4.56697 67.3614 3.49858 71.0022C2.55466 73.3878 2.4613 84.4864 3.08367 87.2351C4.2143 91.7264 7.83438 94.3195 13.3734 94.3195H82.3833C86.6257 94.3195 95.9404 94.7863 99.6124 94.1432C104.031 93.3445 107.029 89.7038 107.236 84.8079C107.236 77.8687 108.989 68.9588 101.656 65.93Z" fill="#EB5877"/>
</svg>
