<svg width="121" height="127" viewBox="0 0 121 127" fill="none" xmlns="http://www.w3.org/2000/svg">
<path d="M102.139 25.7531H15.7191V112.275H102.139V25.7531Z" fill="white"/>
<path fill-rule="evenodd" clip-rule="evenodd" d="M18.8559 28.2243H32.3228V32.0597H86.6804V28.2243H100.144V111.143H18.8559V28.2243ZM52.897 15.929C52.897 13.2689 52.8652 12.5785 54.3604 10.9978C54.955 10.4054 55.6821 9.92238 56.4983 9.5775C57.3145 9.23262 58.2031 9.03298 59.111 8.99053C60.0188 8.94808 60.9273 9.06368 61.7821 9.33043C62.6369 9.59717 63.4205 10.0096 64.086 10.543C66.2048 12.2196 66.0489 13.1264 66.1126 16.0523C66.0489 19.9644 63.8347 22.5999 58.9735 22.3533C53.8832 22.115 52.0539 17.4221 52.897 15.9126V15.929ZM48.1599 14.7072H36.2805C34.2539 14.7072 32.3228 16.6495 32.3228 18.5426V22.378H16.489C15.3134 22.3966 14.1912 22.8042 13.3554 23.5164C12.5195 24.2285 12.0341 25.1904 12 26.2025V113.165C12.0254 114.18 12.5076 115.148 13.345 115.863C14.1823 116.579 15.3095 116.986 16.489 117H102.514C103.695 116.991 104.824 116.584 105.662 115.868C106.5 115.151 106.98 114.182 107 113.165V26.2025C106.991 25.183 106.514 24.2079 105.674 23.4895C104.834 22.7712 103.698 22.3677 102.514 22.367H86.6804V18.5316C86.6804 16.6441 84.7461 14.6962 82.7227 14.6962H70.856C70.856 11.5813 69.6726 9.82525 67.5219 7.84727C67.4901 7.82261 67.4583 7.76782 67.3947 7.74043C61.1623 2.12703 48.1662 5.48027 48.1662 14.688L48.1599 14.7072Z" fill="#EF8084"/>
<path fill-rule="evenodd" clip-rule="evenodd" d="M34.6898 69.674C36.0006 69.7014 35.3261 69.2768 37.1841 71.378C37.744 71.9917 38.6189 73.1341 39.1788 73.5067L41.2976 72.1369V75.5367C40.1778 75.0847 38.7525 75.5367 37.06 75.5367C35.7493 75.5367 35.9051 75.3505 34.6898 75.3258V69.674ZM37.8713 67.6522L35.7493 63.8168L32.3229 65.8386C32.8192 66.4769 33.3823 66.7947 33.6304 67.6467H32.3229V77.5476H43.6678V70.8C43.6678 70.0028 49.1844 66.5427 49.932 66.0112C53.7974 63.2168 52.8939 64.6414 52.8939 58.1869C51.7072 58.48 44.3836 65.1318 42.9488 66.3564C40.9541 68.0878 41.6094 67.6604 37.8585 67.6604L37.8713 67.6522Z" fill="#EB5878"/>
<path fill-rule="evenodd" clip-rule="evenodd" d="M34.6898 48.5025C36.1246 48.5271 35.7492 48.5819 37.184 50.2037C37.7153 50.8174 38.6188 51.9872 39.1788 52.3324C39.8946 51.9352 40.5818 51.3763 41.2976 50.9763V54.1432H34.6898V48.5025ZM37.8712 46.4779C37.7758 45.7081 37.3081 45.3081 36.9168 44.615C36.4809 43.8726 36.1692 43.3137 35.7619 42.648C34.9539 43.1 33.2391 44.2424 32.3356 44.4561C32.5837 45.2013 33.4268 45.867 33.9263 46.4779H32.3356V56.165H39.1788C40.3018 56.165 40.6422 56.3239 41.3294 56.3513C42.1407 56.3787 42.4842 56.165 43.6677 56.165V49.6449C43.6677 48.9792 44.5394 48.5819 44.9753 48.2888C45.5066 47.9436 46.0665 47.571 46.5978 47.193C54.4813 41.7138 52.8938 43.4397 52.8938 36.999C51.7071 37.2922 44.3835 43.9466 42.9487 45.1684C40.954 46.8998 41.6094 46.4725 37.8585 46.4725L37.8712 46.4779Z" fill="#EB5878"/>
<path fill-rule="evenodd" clip-rule="evenodd" d="M34.6898 91.0784H41.2976V96.7193H34.6898V91.0784ZM32.3229 89.5086V98.7411H43.6677V88.8511H33.1023C32.5074 88.8511 32.3229 89.01 32.3229 89.5168V89.5086Z" fill="#EB5878"/>
<path d="M86.6804 69.6823H50.2755V71.7043H86.6804V69.6823Z" fill="#EB5878"/>
<path fill-rule="evenodd" clip-rule="evenodd" d="M50.2755 74.1807V75.5369H86.6804V73.5094H51.0486C50.4569 73.5094 50.2692 73.6683 50.2692 74.1752L50.2755 74.1807Z" fill="#EB5878"/>
<path fill-rule="evenodd" clip-rule="evenodd" d="M50.2755 91.5306V92.9004H86.6804V90.8759H51.0486C50.4569 90.8759 50.2692 91.0375 50.2692 91.5416L50.2755 91.5306Z" fill="#EB5878"/>
<path fill-rule="evenodd" clip-rule="evenodd" d="M50.2755 95.3633V96.733H86.6804V94.7113H51.0486C50.4569 94.7113 50.2692 94.8702 50.2692 95.377L50.2755 95.3633Z" fill="#EB5878"/>
<path fill-rule="evenodd" clip-rule="evenodd" d="M50.2755 49.8587C50.2755 50.3902 50.4632 50.5244 51.055 50.5244H86.6868V48.5026H50.2755V49.8587Z" fill="#EB5878"/>
<path fill-rule="evenodd" clip-rule="evenodd" d="M50.2755 53.6913C50.2755 54.1954 50.4632 54.3571 51.055 54.3571H86.6868V52.3325H50.2755V53.6913Z" fill="#EB5878"/>
<path fill-rule="evenodd" clip-rule="evenodd" d="M66.1094 16.0632L65.9217 16.3563C64.7668 18.1918 63.6947 20.3752 59.5016 20.3752C58.3731 20.3911 57.2588 20.1571 56.2656 19.6956C55.2723 19.2341 54.4333 18.5607 53.8291 17.7398C53.2978 16.9946 53.3615 16.5426 52.8938 15.929C52.0507 17.4467 53.8896 22.1313 58.9703 22.3696C63.8315 22.6107 66.0457 19.9753 66.1094 16.0687V16.0632Z" fill="#EB5878"/>
</svg>
